<?xml version="1.0" encoding="UTF-8" standalone="no"?>
<!-- Created with Inkscape (http://www.inkscape.org/) -->

<svg
   version="1.1"
   id="svg1"
   width="331.82947"
   height="427.8804"
   viewBox="0 0 331.82947 427.8804"
   xml:space="preserve"
   xmlns="http://www.w3.org/2000/svg"
   xmlns:svg="http://www.w3.org/2000/svg"><defs
     id="defs1" /><g
     id="layer6"
     style="display:inline"
     transform="translate(-1691.8046,-2595.793)"><path
       id="path26"
       style="display:inline;fill:#000000;stroke-width:3.77953"
       d="m 1843.9961,2596.0664 c -85.8272,6.0198 -142.875,106.5299 -150.5723,143.291 0,0 -6.0099,32.1747 5.127,34.1192 0,0 23.5104,-17.1485 36.2383,-34.8262 0,0 -8.8385,-89.0945 70.3574,-100.0547 0,0 72.125,-15.2037 35.0019,100.0547 0,0 -21.1484,63.3496 -142.1484,260.3496 0,0 -6.5197,6.0534 31.3105,-0.3105 0,0 116.496,-175.5394 154.6797,-283.0196 9.9156,-29.267 38.6421,-43.7592 62.9453,-43.3867 50.6167,0.7759 37.0043,51.5595 26.1446,68.3828 -4.3525,6.7427 -10.5491,12.6882 -19.3301,16.584 h -29.5 c 0,0 -20.25,2.25 -21.5,21.75 -1.25,19.5 11.25,24.75 11.25,24.75 40.2227,24.8615 38.742,89.5828 38.25,99.75 -1.5,31 -6.2794,84.8964 -83.5,83 0,0 -5.798,-8.3159 -12.8691,-3.8965 -7.071,4.4194 -30.4043,34.2949 -30.4043,34.2949 0,0 -3.1688,6.0055 7.0703,6.5391 43.1491,2.2488 84.1583,-11.6822 114.1015,-37.6152 77.6718,-67.2694 45.8594,-189.6502 25.7286,-205.8047 0,0 0,0 0.01,0 v 0 0 0 0 0 c -0.01,-0.2307 -4.8135,-4.5161 -1.0137,-9.2578 0,0 42.625,-36.75 51.125,-88.75 12.293,-62.159 -78.3133,-66.1211 -121.75,-22.25 0,0 -4.625,5.125 -9,-4.125 0,0 13.2762,-55.9214 -30.2109,-59.457 -5.9716,-0.4855 -11.8212,-0.5029 -17.543,-0.1016 z m 35.4707,261.8242 c -14.6179,8.6799 -25.4205,20.0306 -33.375,33.375 8.1106,13.1647 17.5978,22.5434 28.375,28.375 12.1128,-9.3963 23.8932,-19.3742 33.375,-33.375 -7.7936,-6.9611 -13.0887,-10.1747 -28.375,-28.375 z" /></g></svg>
