<?xml version="1.0" encoding="UTF-8" standalone="no"?>
<!-- Created with Inkscape (http://www.inkscape.org/) -->

<svg
   width="269.51309mm"
   height="268.76367mm"
   viewBox="0 0 1018.6322 1015.7997"
   version="1.1"
   id="svg1"
   inkscape:export-filename="preview_01.15.26.png"
   inkscape:export-xdpi="96"
   inkscape:export-ydpi="96"
   inkscape:version="1.4.3 (0d15f75042, 2025-12-25)"
   sodipodi:docname="drawing.svg"
   xmlns:inkscape="http://www.inkscape.org/namespaces/inkscape"
   xmlns:sodipodi="http://sodipodi.sourceforge.net/DTD/sodipodi-0.dtd"
   xmlns="http://www.w3.org/2000/svg"
   xmlns:svg="http://www.w3.org/2000/svg">
  <sodipodi:namedview
     id="namedview1"
     pagecolor="#ffffff"
     bordercolor="#000000"
     borderopacity="0.25"
     inkscape:showpageshadow="2"
     inkscape:pageopacity="0.0"
     inkscape:pagecheckerboard="0"
     inkscape:deskcolor="#d1d1d1"
     inkscape:document-units="mm"
     showguides="false"
     showgrid="false"
     inkscape:export-bgcolor="#ffffffff"
     inkscape:zoom="0.50774802"
     inkscape:cx="197.93283"
     inkscape:cy="366.32344"
     inkscape:window-width="1920"
     inkscape:window-height="1008"
     inkscape:window-x="1920"
     inkscape:window-y="0"
     inkscape:window-maximized="1"
     inkscape:current-layer="layer1">
    <sodipodi:guide
       position="-16.635395,1143.6553"
       orientation="0,1122.5197"
       id="guide1"
       inkscape:locked="false" />
    <sodipodi:guide
       position="1105.8843,1143.6553"
       orientation="793.70079,0"
       id="guide2"
       inkscape:locked="false" />
    <sodipodi:guide
       position="1105.8843,349.95447"
       orientation="0,-1122.5197"
       id="guide3"
       inkscape:locked="false" />
    <sodipodi:guide
       position="-16.635395,349.95447"
       orientation="-793.70079,0"
       id="guide4"
       inkscape:locked="false" />
    <inkscape:grid
       id="grid7"
       units="mm"
       originx="-16.635395"
       originy="-21.13557"
       spacingx="94.488191"
       spacingy="94.488191"
       empcolor="#a700e5"
       empopacity="0.30196078"
       color="#0099e5"
       opacity="0.14901961"
       empspacing="1"
       enabled="true"
       visible="false" />
    <inkscape:grid
       id="grid8"
       units="mm"
       originx="-16.635395"
       originy="-21.13557"
       spacingx="3.7795277"
       spacingy="3.7795276"
       empcolor="#0099e5"
       empopacity="0.30196078"
       color="#0099e5"
       opacity="0.14901961"
       empspacing="5"
       enabled="true"
       visible="false" />
  </sodipodi:namedview>
  <defs
     id="defs1" />
  <g
     inkscape:label="Layer 1"
     inkscape:groupmode="layer"
     id="layer1"
     transform="translate(-16.635395,-21.13557)">
    <path
       style="display:inline;fill:#000000;fill-opacity:1;stroke:none;stroke-width:0.453544;stroke-opacity:1"
       d="m 35.330164,36.582348 c 0,0 0.62088,4.32025 6.77788,1.03479 6.157,-3.28546 15.72881,-12.13292 17.41035,-14.43533 0.058,-0.002 1.41096,-2.04987 2.50937,0 2.1165,3.9499 6.45159,53.88132 -3.0009,42.68511 -19.0068,-22.51305 -28.25455,-8.54542 -22.81826,5.91818 1.14355,3.04247 3.17701,5.8526 5.84306,8.41643 3.60447,3.46627 8.36523,6.48234 13.64639,9.01376 4.48834,2.15139 5.5102,-0.76525 8.51317,-1.92821 0.0778,-0.24128 2.64852,3.14165 -1.35563,7.86441 0,0 -29.25432,4.48329 -31.04371,-21.10973 -1.84552,-26.39571 11.63854,-24.4053 26.80107,-16.86708 1.3708,-7.12573 1.78565,-21.58483 -0.41256,-27.88694 0,0 -8.19512,9.95122 -16.64634,12.69512 -8.45122,2.74391 -6.22389,-5.40051 -6.22389,-5.40051 z"
       id="path16"
       sodipodi:nodetypes="cscsscssccsccsc" />
    <path
       id="path16-1"
       style="display:inline;fill:#000000;fill-opacity:1;stroke:none;stroke-width:0.453544;stroke-opacity:1"
       d="m 153.23127,22.120946 c -0.71553,0.0271 -1.31127,0.9092 -1.3493,0.91078 -1.68153,2.30241 -11.25331,11.14994 -17.41031,14.43539 -6.15701,3.28546 -6.77789,-1.03476 -6.77789,-1.03476 0,0 -2.22739,8.14437 6.22382,5.40047 8.45122,-2.7439 16.64649,-12.69516 16.64649,-12.69516 2.19821,6.30211 1.7833,20.76138 0.4125,27.88711 -9.67552,-4.81029 -14.15758,-5.04827 -18.67981,-2.69828 -1.21832,0.63311 -2.2693,1.48293 -3.16377,2.50553 -9.14747,10.45783 -1.92625,38.98548 10.08778,38.57935 3.11609,-0.10534 6.88662,-8.34631 7.72127,-10.26136 -0.29268,16.134144 8.23172,12.25593 8.23172,12.25593 -7.39025,-0.84146 -6.74532,-18.34031 -6.74532,-18.34031 -1.22881,-1.83675 -1.07367,0 -1.07367,0 0,7.56222 -5.24277,10.38791 -5.5494,10.36726 -10.30604,5.40697 -17.30953,-22.70142 -11.35506,-32.19296 0.6042,-0.9631 1.34181,-1.73452 2.22292,-2.2598 3.73497,-2.2266 8.06402,-0.0304 18.71725,10.73691 10.30576,10.41613 5.11744,-38.73543 3.00093,-42.68532 -0.37757,-0.70464 -0.78535,-0.92495 -1.16015,-0.91078 z"
       sodipodi:nodetypes="scscsccssscccccssssss" />
    <path
       d="m 247.9281,22.072895 c -1.97451,5.00547 -3.73361,8.13849 -6.72145,12.64536 -2.98784,4.50687 -8.3596,11.32093 -11.43182,14.11626 -3.07221,2.79532 -4.24874,0.61444 -5.46688,3.66627 -0.35195,0.88174 0.33059,2.87792 1.87728,2.34905 1.78547,-0.61051 2.98224,-1.86255 4.25891,-2.96375 3.93647,-3.28069 6.64434,-7.25768 9.52653,-11.1086 0,0 1.26774,-0.45982 1.9053,-0.35126 0.66281,0.11287 2.56091,0.69046 2.46569,3.60042 -0.18009,3.97508 -1.94326,7.58593 -3.52175,11.21836 -0.62993,1.43215 -1.17891,2.89489 -1.87175,4.30294 -0.71325,1.44952 -1.50063,2.95859 -2.34847,4.25902 -1.72046,2.63888 -3.32301,5.11782 -4.30227,7.92531 -0.69218,1.98443 -1.0179,4.08805 -1.06474,6.169 -0.0718,3.18886 -0.0115,6.51332 1.20483,9.50597 0.77007,1.8947 1.91426,3.85451 3.72655,5.02741 2.11549,1.36913 4.97053,2.21412 7.53315,1.82216 0.92246,-0.14109 2.43327,-0.98997 3.39413,-1.79782 0.58044,-0.48802 0.92359,-1.32927 1.34917,-1.77214 0,0 -1.3211,0.21715 -2.17536,1.27877 -1.79323,2.22853 -4.67645,0.0217 -7.30318,-3.04357 -2.78777,-3.4129 -2.56803,-8.02675 -2.21352,-11.96479 0.95747,-4.96908 2.2337,-10.3471 4.00674,-15.192 1.59236,-4.66612 3.80935,-9.38212 4.34298,-14.0943 0.29376,-2.5941 0.79095,-6.71924 -2.21352,-7.61795 -0.86378,-0.25838 -1.31689,-0.21954 -2.74587,0.30735 0,0 1.09274,-1.44895 1.48501,-2.0417 2.43799,-3.68399 2.71037,-4.69418 3.69814,-7.17887 1.16804,-2.93815 2.26392,-6.00717 2.60617,-9.0669 z"
       style="display:inline;fill:#000000;fill-opacity:1;stroke-width:0.488041;stroke-linecap:round;stroke-linejoin:bevel"
       id="path1-6"
       sodipodi:nodetypes="czzssacasaasaaaasacsssssacsac" />
    <path
       d="m 343.24914,22.401604 c -1.97451,5.00547 -3.73362,8.1386 -6.72146,12.64547 -2.98783,4.50687 -8.35959,11.32085 -11.4318,14.11617 -3.07222,2.79533 -4.24879,0.6145 -5.46693,3.66633 -0.35196,0.88174 0.33083,2.87777 1.87752,2.3489 1.78547,-0.61051 2.98225,-1.86247 4.25892,-2.96367 3.93646,-3.28069 6.64419,-7.25775 9.52637,-11.10867 0,0 1.26787,-0.45966 1.90543,-0.35109 0.66281,0.11286 2.56087,0.69028 2.46564,3.60023 -0.18008,3.97508 -1.94322,7.58593 -3.52171,11.21836 -0.62992,1.43215 -1.179,2.89508 -1.87184,4.30313 -0.71325,1.44952 -1.50074,2.95838 -2.34858,4.25883 -1.72046,2.63887 -3.32281,5.1179 -4.30208,7.92538 -0.69218,1.98444 -1.01801,4.08804 -1.06486,6.16899 -0.0718,3.18886 -0.0114,6.51336 1.20492,9.50601 0.77006,1.8947 1.9057,3.86551 3.72662,5.02735 1.94051,1.23815 4.55574,1.79111 6.94936,1.67625 0.81142,-0.0389 1.67716,-0.29289 2.27652,-0.79052 0.40322,-0.33477 0.5497,-0.8654 0.71913,-1.3368 0.19746,-0.54937 0.23201,-1.38087 0.33529,-1.70659 0,0 -0.0616,5.81883 1.4889,7.84617 0.84325,1.10256 2.52732,1.29 4.13179,1.47 -1.48651,-0.91634 -1.88672,-2.56812 -2.51603,-3.99 -0.74295,-1.67866 -1.1474,-3.42107 -1.44508,-5.26595 0,-1.56914 -0.62322,-9.63809 -0.99183,-9.97243 -0.29136,-0.26428 -0.75945,0.23258 -0.93923,0.51503 -0.41974,0.65941 -1.02022,1.13631 -0.68511,2.19813 0.82419,2.61153 1.48992,5.6222 0.17559,8.01298 -0.48808,0.88782 -1.57074,1.83843 -2.65947,1.74333 -1.96133,-0.17133 -3.16806,-2.31044 -4.04213,-3.91219 -1.97779,-3.62437 -2.56794,-8.02679 -2.21343,-11.96483 0.95747,-4.96907 2.23369,-10.34706 4.00673,-15.19196 1.59235,-4.66612 3.80928,-9.38195 4.3429,-14.09414 0.29377,-2.5941 0.79103,-6.71941 -2.21344,-7.61812 -0.86378,-0.25838 -1.31677,-0.21939 -2.74574,0.3075 0,0 1.09274,-1.44913 1.48501,-2.04188 2.43799,-3.68399 2.71017,-4.69397 3.69794,-7.17867 1.16804,-2.93815 2.26395,-6.0073 2.60621,-9.06703 z"
       style="display:inline;fill:#000000;stroke-width:0.48804;stroke-linecap:round;stroke-linejoin:bevel"
       id="path1-9"
       sodipodi:nodetypes="cssssccsccssssssaaacscacsssaaaccsscsscc" />
    <path
       style="display:inline;fill:#000000;stroke-width:0.230017"
       d="m 406.51405,23.663234 c 0,0 -1.86624,10.80842 1.77876,22.5028 6.62367,21.25094 20.33356,-1.48349 26.42967,5.8472 5.41194,6.50796 6.54788,18.57389 2.80619,26.39877 -4.11799,8.61183 -11.72086,15.67829 -23.39743,13.41797 -3.30057,-0.63891 -7.80514,-3.92385 -7.80514,-3.92385 0,0 5.53637,6.28683 14.39691,6.60156 3.06732,0.10895 5.9089,-0.63223 8.56485,-2.02894 2.65596,-1.3967 5.39058,-3.22806 7.45114,-5.9621 7.31463,-9.70537 3.81393,-20.63361 2.64488,-42.93956 -0.33942,-6.47634 -1.80181,-21.15885 -3.94858,-19.07171 -0.99903,0.97128 -2.28453,2.42675 -1.81384,4.13459 0.76663,2.78163 1.65079,6.302 0.54318,11.84496 -1.47702,7.39172 -5.80194,11.13049 -11.12893,12.23837 -9.53187,1.98239 -12.79186,-11.95976 -16.52166,-29.06006 z"
       id="path59"
       sodipodi:nodetypes="csaascssssssssc" />
    <path
       d="m 501.05702,23.504006 c 0,0 -1.86633,10.80844 1.77867,22.50281 6.62367,21.25095 20.33365,-1.4835 26.42976,5.84719 5.41194,6.50796 6.54786,18.57395 2.80617,26.39883 -3.25745,6.81223 -9.65387,13.45062 -17.2064,14.18133 -1.75725,0.17001 -3.79113,-2.16827 -4.64156,-3.52196 -0.14896,-1.11544 -0.44378,-2.05837 -0.67524,-2.50476 -0.36222,-0.69857 -1.39711,-2.04398 -1.39711,-2.04398 0.72444,2.19918 0.621,5.69199 -0.4139,7.89117 -1.03491,2.19918 -1.52661,2.61319 -2.94961,3.23414 -1.423,0.62094 -2.25081,0.54336 -2.94938,0.38812 -0.69856,-0.15524 -1.29375,-0.95742 -1.29375,-0.95742 0,0 0.41409,0.828 1.42313,1.83703 1.00903,1.00904 2.53547,1.06078 2.53547,1.06078 0,0 2.25102,0.18116 3.75164,-1.60406 1.23704,-1.47165 1.73562,-2.83798 1.94508,-4.33055 0.80936,1.08337 2.40313,2.37128 5.06601,2.46586 3.06732,0.10895 5.90881,-0.63228 8.56476,-2.02898 2.65596,-1.39671 5.39069,-3.22799 7.45125,-5.96203 7.31464,-9.70537 3.81397,-20.63367 2.64493,-42.93961 -0.33943,-6.47635 -1.80198,-21.15894 -3.94875,-19.0718 -0.99903,0.97128 -2.28452,2.42677 -1.81383,4.13461 0.76663,2.78163 1.65088,6.30211 0.54328,11.84508 -1.47702,7.39172 -5.80207,11.13048 -11.12906,12.23836 -9.53187,1.98239 -12.79177,-11.95986 -16.52156,-29.06016 z"
       style="display:inline;fill:#000000;stroke-width:0.36;stroke-linecap:round;stroke-linejoin:bevel"
       id="path1-26" />
    <path
       id="path17"
       style="display:inline;fill:#000000;fill-opacity:1;stroke:none;stroke-width:0.453544;stroke-opacity:1"
       d="m 624.44213,21.773882 c -0.71553,0.0271 -1.31127,0.90943 -1.3493,0.91101 -1.68153,2.30241 -11.25331,11.14993 -17.41031,14.43539 -6.15701,3.28546 -6.77789,-1.03476 -6.77789,-1.03476 0,0 -2.22739,8.14437 6.22382,5.40046 8.45123,-2.7439 16.64626,-12.69515 16.64626,-12.69515 2.19821,6.30211 1.7833,20.76114 0.4125,27.886869 -15.16253,-7.538209 -28.51561,-9.537499 -26.80102,16.86704 1.04492,16.09167 15.29331,29.131509 19.70665,15.57794 0.35205,-1.08118 0.18922,4.41192 3.49892,5.53993 3.13959,1.07003 10.11934,-1.56063 10.80368,-5.36177 1.07404,-5.96567 -1.65218,-7.05913 -1.92085,-5.40457 -0.26968,1.6608 -9.49074,10.38715 -9.66387,-8.15779 -0.0508,-1.79786 -2.22164,-3.32039 -3.01728,-3.21449 -0.38755,0.0516 0.82712,1.29206 0.37869,3.21449 -1.69593,5.29455 -3.69454,9.34775 -5.77123,9.98956 -9.92471,3.06732 -20.63944,-56.948479 13.20021,-20.35807 9.94884,10.75757 5.11744,-38.735189 3.00094,-42.685079 -0.37758,-0.70464 -0.78512,-0.92519 -1.15992,-0.91101 z"
       sodipodi:nodetypes="scscsccssssscscsssss" />
    <path
       id="path6"
       style="display:inline;fill:#000000;fill-opacity:1;stroke:#000000;stroke-width:0.453544"
       d="m 715.72156,24.857545 c 0,0 -11.26982,11.43444 -17.73,14.28 -5.04,2.22 -6.02813,-1.31461 -6.02813,-1.31461 0,0 -1.05187,3.95461 3.26813,4.67461 4.32,0.72 15.68355,-7.50377 18.99281,-12.87071 0.24958,4.87871 -10.08106,21.35514 -20.02125,14.90977 -0.94274,3.09036 10.27203,8.05447 19.93969,-7.07156 l 0.0862,0.31734 c 0.33142,0.28123 3.2178,21.37722 -6.39516,19.40461 -3.17151,1.65362 -4.75696,6.99585 0.53016,5.00625 17.71173,-7.91259 7.523,31.70751 -2.24625,34.81172 -1.48535,0.47197 -4.34014,0.72743 -5.30367,-2.48391 0,0 -0.87658,-0.67545 -2.33672,-1.61015 -0.405,0.465 0.86531,14.175005 11.78531,9.315005 10.88355,-4.843785 16.62291,-44.608355 -0.84352,-42.634225 8.09002,-1.162 12.10096,-27.57723 6.85149,-34.11211 -0.16731,-0.25883 -0.34881,-0.46952 -0.54914,-0.62203 z"
       sodipodi:nodetypes="cscsccccccsccsccc" />
    <path
       id="path10"
       style="display:inline;fill:#000000;fill-opacity:1;stroke:#000000;stroke-width:0.453544"
       d="m 810.6542,27.24099 c 0,0 -11.26982,11.43444 -17.73,14.28 -5.04,2.22 -6.02813,-1.31461 -6.02813,-1.31461 0,0 -1.05187,3.95461 3.26813,4.67461 4.32,0.72 15.68355,-7.50376 18.99281,-12.8707 0.24958,4.8787 -9.75105,20.78513 -20.02125,14.90976 -0.94274,3.09036 10.27203,8.05447 19.93969,-7.07156 l -0.0488,0.35484 c 0.21366,0.22428 -1.24697,7.6293 -1.15172,11.47102 -0.15148,13.92953 10.09371,47.7956 -7.86633,52.83726 -6.24008,0.96002 -8.63524,-10.20326 -3.45773,-19.19789 0.004,-0.0927 -1.66362,-2.01651 -2.05383,-1.40133 -0.35581,0.56096 -8.74315,14.59398 -5.98008,21.50086 0.96598,2.41467 1.80397,2.70079 6.6975,2.45016 15.23831,-0.78044 24.76364,-18.21057 19.09547,-54.8407 -1.9016,-6.34668 1.83185,-18.03642 -3.12234,-25.18383 -0.16297,-0.24786 -0.33933,-0.45012 -0.53344,-0.59789 z"
       sodipodi:nodetypes="cscsccccaccsssccc" />
    <path
       id="path10-1"
       style="display:inline;fill:#000000;fill-opacity:1;stroke:#000000;stroke-width:0.453544"
       d="m 902.33683,25.470665 c 0,0 -11.26982,11.43444 -17.73,14.28 -5.04,2.22 -6.02813,-1.31461 -6.02813,-1.31461 0,0 -1.05187,3.95461 3.26813,4.67461 4.32,0.72 15.68355,-7.50376 18.99281,-12.8707 0.24958,4.8787 -9.75105,20.78513 -20.02125,14.90976 -0.94274,3.09036 10.27203,8.05447 19.93969,-7.07156 l -0.0488,0.35484 c 0.21366,0.22428 -1.24697,7.6293 -1.15172,11.47102 -0.15148,13.92953 10.09371,47.795602 -7.86633,52.837265 -5.52247,0.84961 -8.03362,-7.796143 -4.94929,-16.030545 0.4279,3.90404 1.95159,8.997592 6.40945,6.87445 l -0.86602,-0.74086 c 0,0 -3.23926,-4.45401 -3.43664,-10.01273 -0.0927,-2.61205 -2.01452,-1.57464 -2.64515,-0.72164 -0.004,0.005 -0.009,0.0109 -0.0129,0.0166 -0.0513,0.0711 -0.0966,0.14145 -0.12774,0.20742 -1.07558,1.79942 -8.48375,14.758682 -5.86336,21.308905 0.96598,2.41467 1.80397,2.70079 6.6975,2.45016 15.23831,-0.78044 24.76364,-18.210575 19.09547,-54.840705 -1.9016,-6.34668 1.83185,-18.03642 -3.12234,-25.18383 -0.16297,-0.24786 -0.33933,-0.45012 -0.53344,-0.59789 z" />
    <path
       id="path4"
       style="display:inline;fill:#000000;stroke-width:0.230017"
       d="m 974.03036,23.424971 c 0,0 -1.86633,10.80844 1.77867,22.50281 6.62368,21.25095 20.33366,-1.4835 26.42977,5.84719 5.4119,6.50796 6.5478,18.57395 2.8061,26.39883 -1.0582,2.57286 -2.4677,5.01234 -4.4271,6.92883 -3.59269,3.51416 -9.1973,7.71323 -12.88139,7.83479 -10.49388,0.34625 -15.0193,-17.76224 -7.44542,-22.8826 3.6735,-2.4835 6.26062,11.12407 6.26062,11.12407 -2.40482,-28.02636 -15.16927,-11.13285 -15.25091,0.20707 -0.01,1.35617 0.1017,2.49094 0.47048,3.53047 1.08894,3.06954 8.46169,9.63441 16.65725,9.49525 12.90847,-0.21918 20.68657,-13.49917 20.85957,-21.28274 0.164,-7.37848 -1.7189,-17.02854 -2.3878,-29.79008 -0.3394,-6.47635 -1.8019,-21.15894 -3.9487,-19.0718 -0.999,0.97128 -2.2845,2.42677 -1.8138,4.13461 0.7666,2.78163 1.6508,6.30211 0.5432,11.84508 -1.477,7.39171 -5.80198,11.13048 -11.12897,12.23836 -9.53187,1.98239 -12.79176,-11.95986 -16.52156,-29.06016 z"
       sodipodi:nodetypes="csssasscssssssssscc" />
    <path
       style="display:inline;fill:#000000;stroke-width:0.616012;stroke-linecap:round;stroke-linejoin:bevel"
       d="m 51.909654,234.50852 c -4.49783,2.8713 -13.23986,9.72759 -16.25977,21.10833 -1.72187,6.48895 -3.20102,14.62937 -0.0981,20.37756 2.22252,4.11721 5.45841,7.66436 11.31491,6.235 5.76502,-1.40705 10.21687,-10.99944 11.67823,-16.18109 1.44431,-5.1212 -0.18751,10.5823 -1.41111,15.68826 -1.91032,7.9716 -4.80595,18.88226 -17.61428,25.56218 -2.94815,1.53754 -6.91672,2.52412 -9.65037,2.52412 2.89695,3.01687 6.73776,3.16889 8.76532,3.00413 2.58921,-0.2104 6.44463,-1.77275 9.1179,-3.66596 6.96315,-4.9313 15.70413,-18.79779 14.84868,-35.63823 -0.35336,-6.95622 -3.02974,-20.85617 -4.39134,-20.37797 0,0 -1.82843,1.32533 -1.59678,3.61565 0,0 0.76402,2.82641 0.96084,4.27652 0.18105,1.33395 0.3321,2.69704 0.198,4.03712 -0.13324,1.33148 -0.42538,2.67844 -0.98639,3.88001 -0.88539,1.89636 -2.11492,3.6825 -3.65461,5.03824 -1.95021,1.71722 -5.53972,4.20426 -6.78491,3.66869 -9.08652,-3.90817 -7.68892,-16.94444 -5.57089,-26.10114 0.66826,-2.88905 2.95837,-7.21717 5.05901,-10.33824 1.72258,-2.55937 2.9722,-4.33859 6.07563,-6.71318 z"
       id="path24"
       sodipodi:nodetypes="caassaacsssccaaaassac" />
    <path
       d="m 141.93578,234.52012 c -13.00418,-4.05073 -29.85739,32.19744 -9.76576,36.38833 0,0 3.23452,0.43542 6.40684,-2.6747 -2.27101,9.46548 -6.02934,11.92761 -9.98204,17.27664 -2.32541,3.14686 -2.33256,5.60868 -1.84873,5.12487 38.36173,-42.45337 28.52424,10.37503 7.29,25.12104 -2.23928,1.55505 -2.89476,1.92827 -2.89476,1.92827 9.33858,-0.66567 14.1296,-9.29856 18.07211,-15.36397 8.0863,-12.44045 6.15803,-19.71812 6.15803,-19.71812 0,0 -0.0622,-6.59344 -8.2107,-9.33034 0,0 -3.73214,-1.30625 -8.1485,0.62202 2.86676,-4.06846 5.76472,-15.10274 4.44359,-15.86549 -1.17413,-0.67789 -2.82896,1.03286 -3.26175,2.4298 -10.90034,32.70109 -23.43668,-22.27604 1.74167,-25.93835 z"
       style="display:inline;fill:#000000;stroke-width:0.612;stroke-linecap:round;stroke-linejoin:bevel"
       id="path1"
       sodipodi:nodetypes="sssssscscscssss" />
    <path
       id="path9"
       style="display:inline;fill:#000000;stroke-width:0.453544"
       d="m 245.84821,237.53608 c 0,0 -8.7,9.12 -16.08,13.38 -7.38,4.26 -7.56,-0.9 -7.56,-0.9 -2.54404,7.63212 8.13165,10.71224 21.83555,-6.44601 3.13955,28.84995 -10.82555,30.83601 -13.67555,31.37601 -2.85,0.54 -2.40967,2.60735 -1.44,3.33 3.28811,2.45048 8.4661,-2.05299 10.95938,-5.35172 0.0306,-0.0207 0.0611,-0.0413 0.0916,-0.0616 0.006,-0.03 0.0133,-0.0599 0.0216,-0.0898 0.24244,-0.32773 0.48364,-0.66717 0.72328,-1.01719 1.52195,-1.27234 4.90584,-1.80052 6.49219,0.38297 2.6872,3.6987 -2.34736,16.34553 -3.32531,20.18226 -1.155,4.06445 -4.00283,10.58889 -7.73789,12.73172 -6.03287,3.21947 -13.38469,-1.77639 -13.80375,0.50016 -0.19456,1.05692 1.25032,3.69328 2.79398,3.69328 14.6027,-0.76199 25.56693,-10.88356 26.10094,-25.79531 0.22611,-13.37614 -3.73623,-14.48438 -9.46195,-13.30289 -0.0103,0.009 -0.0206,0.0175 -0.0309,0.0263 6.26076,-10.14563 10.82316,-26.98126 4.09687,-32.63813 z" />
    <path
       id="path12"
       style="display:inline;fill:#000000;stroke-width:0.453544"
       d="m 341.92327,237.15646 c 0,0 -8.7,9.12 -16.08,13.38 -7.38,4.26 -7.56,-0.9 -7.56,-0.9 -2.54404,7.63211 8.13164,10.71223 21.83554,-6.44602 3.13956,28.84996 -10.82554,30.83602 -13.67554,31.37602 -2.85,0.54 -2.40968,2.60734 -1.44,3.33 3.2881,2.45047 8.4661,-2.053 10.95937,-5.35172 0.0306,-0.0207 0.0611,-0.0413 0.0916,-0.0616 0.006,-0.03 0.0133,-0.0599 0.0216,-0.0898 0.24244,-0.32773 0.48364,-0.66717 0.72329,-1.01719 1.52194,-1.27234 5.92449,-2.25556 6.49218,0.38297 3.03124,14.08856 -10.39408,52.82043 -13.5547,22.26235 0,0 -0.0213,-1.40171 -0.46547,-0.9811 -0.45001,0.42611 -5.03733,24.69093 -10.00139,18.36375 -0.69989,-0.89207 -0.2442,1.61428 0.27774,1.76086 0.30331,0.0852 1.37265,0.44695 2.74992,0.44438 3.12858,-0.006 6.44817,-1.86456 7.38623,-13.14493 0,0 0.61858,2.04302 1.01793,3.03125 0.61821,1.52981 0.53648,1.73488 2.12678,4.46982 1.22419,1.71725 3.47808,1.33152 5.85037,-0.54086 3.99735,-3.155 8.33086,-15.70501 8.64057,-24.3534 0.22611,-13.37614 -3.73624,-14.48438 -9.46196,-13.30289 -0.0103,0.009 -0.0206,0.0175 -0.0309,0.0262 6.26075,-10.14564 10.82315,-26.98126 4.09687,-32.63813 z"
       sodipodi:nodetypes="csccssccccscsssscacscccc" />
    <path
       style="display:inline;fill:#000000;stroke-width:0.471587;stroke-linecap:round;stroke-linejoin:bevel"
       d="m 412.56229,262.82687 c 0,0 0.44456,-3.66989 7.605,-11.0088 4.48017,-4.59184 19.68564,-23.02832 15.405,-2.97 -1.03199,4.83573 -9.906,17.5032 -9.906,17.5032 -5.65087,7.44762 -6.5246,9.5428 -10.76783,10.29978 0.65397,0.75238 1.21817,0.95655 1.51027,1.09153 2.40089,1.10948 7.42819,-3.164 10.97356,-8.12371 7.68292,-4.59901 -0.33957,8.19611 -1.131,10.3548 -2.57372,5.4232 -5.49367,11.229 -7.215,17.028 -1.17957,3.97387 -2.7035,12.27576 6.123,11.9988 0,0 1.7025,0.002 3.549,0.008 -3.89272,-0.6124 -9.46711,-5.94151 -4.875,-16.68 1.287,-3.0096 4.563,-9.5436 4.563,-9.5436 2.52469,-4.68703 5.12472,-9.6333 3.12,-13.3452 -0.663,-1.2276 -1.287,-1.9404 -2.262,-2.2176 6.38473,-9.03598 12.67636,-20.20917 9.867,-26.0964 -3.58113,-7.50455 -28.68405,7.01871 -27.183,19.8792 0,0 0.351,1.584 0.624,1.8216 z"
       id="path22"
       sodipodi:nodetypes="cssccsccscsscscscc" />
    <path
       id="path22-6"
       style="display:inline;fill:#000000;stroke:none;stroke-width:0.471587;stroke-linecap:round;stroke-linejoin:bevel;stroke-opacity:1"
       d="m 533.35757,239.2399 c -8.0924,-0.0626 -24.43562,11.48436 -23.21602,21.93351 0,0 0.35091,1.58396 0.62391,1.82156 0,0 0.44456,-3.66991 7.605,-11.00882 4.48017,-4.59184 19.68564,-23.02832 15.405,-2.97 -1.03199,4.83573 -9.90586,17.50312 -9.90586,17.50312 -5.65087,7.44762 -6.52466,9.54287 -10.76789,10.29985 0.65397,0.75238 1.21821,0.9565 1.51031,1.09148 2.40089,1.10948 7.42807,-3.16396 10.97344,-8.12367 7.68291,-4.59902 -0.33944,8.19623 -1.13086,10.35492 -2.57372,5.4232 -5.49367,11.22882 -7.215,17.02781 -1.17957,3.97387 -2.70369,12.27579 6.12281,11.99883 0,0 2.15713,-0.25406 3.10805,-2.14242 0.18666,-0.28876 0.35871,-0.63579 0.50578,-1.05211 0.86902,11.86297 5.01797,6.09516 5.01797,6.09516 -4.28507,1.56977 -4.20023,-12.04899 -4.20023,-12.04899 -0.0206,-0.33908 -0.0885,-0.46663 -0.17954,-0.46523 -0.28476,0.004 -0.66041,0.79006 -0.7964,1.27125 -0.18144,0.64198 -0.0424,1.86679 -0.0424,1.86679 0,0 0.38589,3.38436 -1.44735,4.55953 -3.80872,1.31598 -7.25325,-5.49165 -3.29172,-14.75554 1.287,-3.0096 4.56305,-9.54352 4.56305,-9.54352 2.52469,-4.68703 5.12472,-9.63341 3.12,-13.34531 -0.663,-1.2276 -1.28719,-1.94046 -2.26219,-2.21766 6.38473,-9.03598 12.67654,-20.20902 9.86719,-26.09625 -0.67146,-1.4071 -2.09955,-2.03986 -3.96703,-2.05429 z"
       sodipodi:nodetypes="sccssccsccscccccssccscscss" />
    <path
       style="display:inline;fill:#000000;stroke-width:0.54;stroke-linecap:round;stroke-linejoin:bevel"
       d="m 606.64109,237.7325 c 0,0 4.56862,4.28853 5.28209,7.17006 1.26664,5.11567 -0.24474,10.80477 -2.35467,15.63413 -2.09475,4.79462 -3.8399,6.08082 -9.8005,12.26123 -3.77328,3.53574 -7.92003,7.15427 -12.12085,10.19171 3.30538,1.32689 6.09903,0.86883 10.92479,-2.18496 5.1649,-3.2684 8.28666,-8.2689 12.1402,-14.62528 3.30984,-5.45954 4.64027,-4.949 7.06587,-1.27278 3.20904,4.86359 4.52833,10.08967 4.70933,15.46443 0.16885,5.01385 0.69903,13.17525 -2.10749,18.83523 -2.01338,4.06043 -5.92712,7.09644 -9.84054,9.38248 -1.91108,1.11638 -6.35142,1.93556 -6.35142,1.93556 l -2.66445,0.20973 c 0,0 1.46043,4.69489 3.48121,5.13853 3.93936,0.86483 11.97337,-8.89811 16.08262,-15.94256 1.78191,-3.05469 5.20975,-12.54244 5.34573,-19.17713 0.11208,-5.46849 -0.25456,-11.70971 -3.75474,-15.97355 -3.50018,-4.26385 -7.95495,-3.96385 -10.43689,-2.94563 0,0 2.38651,-6.16333 2.44378,-9.40046 0.0653,-3.69387 -0.34175,-7.75571 -2.40739,-10.81874 -1.27556,-1.89146 -3.16637,-4.18746 -5.63668,-3.882 z"
       id="path25"
       sodipodi:nodetypes="caascssssaaccasascaac" />
    <path
       id="path14"
       style="display:inline;fill:#000000;fill-opacity:1;stroke:none;stroke-width:0.453544;stroke-opacity:1"
       d="m 694.60239,238.68866 c -0.007,-0.0927 -0.13902,-0.32242 -0.22502,-0.29819 -3.51339,0.98993 -11.0847,41.93057 28.65502,29.21536 0.94205,4.3078 1.40919,11.22703 0.51766,13.13386 -8.49419,-8.7114 -20.64312,-13.34819 -29.56164,-0.85568 -5.64752,7.91069 -7.78241,26.29223 11.91403,28.75261 4.82803,0.60309 15.04594,0.99241 18.76284,-1.15354 1.73673,-1.0027 2.80263,-3.76847 1.90242,-5.7075 -20.73978,4.95854 -37.50154,-3.47763 -31.85179,-20.22985 3.36935,-9.99054 19.98082,-3.48018 28.77867,1.93735 5.81922,2.95593 5.32996,-17.63929 4.13297,-26.86549 -0.58381,-4.49991 -1.66962,-10.19393 -2.81578,-17.32969 0,0 -1.18423,-1.54382 -2.9175,3.11273 -5.44876,44.1029 -25.15892,25.23184 -27.29188,-3.71197 z"
       sodipodi:nodetypes="ssccssscscsccs" />
    <path
       style="display:inline;fill:#000000;stroke-width:0.201205"
       d="m 788.23678,254.88872 c 9.31433,-18.51872 25.37491,-29.47796 21.7793,-15.14462 -3.00087,11.96249 -20.55909,28.70144 -23.10867,45.52852 -2.17778,14.37315 0.5522,20.59805 4.76383,22.73098 5.16766,2.61709 11.07468,0.69044 15.58237,-1.97264 1.32221,-0.78114 1.80585,-1.91714 2.71237,-3.72408 0.21902,-0.43657 -1.1512,-0.4275 -1.74528,-0.38401 -4.76601,0.34886 -8.69315,4.28099 -13.40349,5.08675 -4.04225,0.69147 -5.86852,-5.26274 -3.99644,-15.51446 1.77996,-9.74733 12.6246,-27.65356 12.6246,-27.65356 0,0 7.75196,-12.55077 9.30235,-21.83836 1.55039,-9.28758 -5.19586,-11.83733 -9.62555,-10.16389 -4.42969,1.67344 -13.55648,13.63358 -14.88539,23.04937 z"
       id="path60"
       sodipodi:nodetypes="csssasasscssc" />
    <path
       style="display:inline;fill:#000000;fill-opacity:1;stroke:none;stroke-width:0.453544;stroke-opacity:1"
       d="m 897.85822,246.54566 c 0,0 16.29795,17.07404 7.96789,1.29349 0,0 -13.50402,-19.81624 -17.95362,-14.17663 0,0 -3.8369,5.03366 11.74846,26.25317 15.58537,21.21951 13.60976,40.60976 9.87805,45.14634 -3.73171,4.53659 -11.4878,5.63415 -19.53658,0 0,0 -1.29879,-2.82931 -1.90244,-4.05492 5.69679,0.2738 12.02549,6.3783 16.95731,5.44517 3.31098,-1.2622 4.95732,-10.86586 -0.78658,-24.47561 -4.30843,-10.38374 -28.23502,-43.95109 -16.30764,-49.83913 9.63358,-4.75568 16.05852,1.8916 19.06029,9.1741 4.6176,11.20264 1.48107,24.94732 -9.12514,5.23402 z"
       id="path7"
       sodipodi:nodetypes="cccssccscssc" />
    <path
       style="display:inline;fill:#000000;fill-opacity:1;stroke:none;stroke-width:0.453544;stroke-opacity:1"
       d="m 995.97947,284.38538 c 0.65851,-2.73993 -3.39362,-1.53895 -2.95896,-7.91911 0.56427,-8.28268 8.63569,-18.99218 8.63569,-18.99218 8.3818,-15.5736 5.6396,-21.62712 5.6396,-21.62712 -3.9839,-8.6405 -11.51548,-2.96276 -11.51548,-2.96276 -10.97562,9.43903 -12.73171,21.54878 -12.73171,21.54878 0,0 8.05273,-15.68861 17.88329,-20.9143 0,0 12.009,-4.72106 -4.37204,21.00624 0.0332,-0.004 -8.53957,10.77664 -11.88644,19.44467 -1.35689,4.81499 0.79825,8.49258 1.87484,10.3573 0,0 -7.12404,5.92662 -4.81177,17.48796 0,0 3.4148,13.24531 21.21321,3.51828 l 1.8626,-3.36307 c -0.05,0.24924 -2.6036,-1.80047 -11.84834,3.62177 -9.25576,5.42875 -8.93817,-9.44415 -1.28889,-17.26444 0.30755,-0.31442 3.84975,-2.05031 4.3044,-3.94202 z"
       id="path3"
       sodipodi:nodetypes="ascccccccccccssa" />
    <path
       id="path8"
       style="display:inline;fill:#000000;fill-opacity:1;stroke:#000000;stroke-width:0.453544"
       d="m 60.532976,454.68652 c 0,0 -11.269814,11.43444 -17.73,14.28 -5.04,2.22 -6.028124,-1.31461 -6.028124,-1.31461 0,0 -1.051876,3.95461 3.268124,4.67461 4.32,0.72 15.683552,-7.50377 18.992813,-12.87071 0.249583,4.87871 -9.751056,20.78514 -20.02125,14.90977 -0.942739,3.09036 10.272029,8.05447 19.939687,-7.07156 l -0.04875,0.35484 c 0.02912,0.0306 0.05854,0.17251 0.08391,0.40828 l -0.234834,-0.0695 c -0.250492,-0.12525 0.467375,23.18686 -9.512343,18.00726 -0.911621,-0.52221 -1.609253,-0.29885 -2.374021,0.32825 -8.559882,6.85884 -24.217864,47.46436 13.583464,44.37001 0,0 0.798766,-0.10304 -0.23414,-2.99789 -1.032906,-2.89485 -1.69865,-4.5064 -4.741406,-3.51 -15.394883,5.04128 -16.129439,-20.58785 -12.565313,-30.42469 0.768811,-2.12189 2.390513,-4.93653 5.616819,-5.16094 5.641637,-0.39243 14.151321,-3.75403 14.732321,-20.31422 0.527332,-5.47669 -0.200324,-10.56611 -2.188124,-12.99304 -0.164428,-0.25153 -0.342629,-0.4565 -0.538829,-0.60586 z"
       sodipodi:nodetypes="cscsccccccsscsssaccc" />
    <path
       style="display:inline;fill:#000000;stroke-width:0.5184;stroke-linecap:round;stroke-linejoin:bevel"
       d="m 146.02504,460.14289 c -0.44991,-0.91807 -1.35996,-0.93935 -2.10316,-0.9164 -2.18486,0.0675 -6.79196,3.92319 -10.3175,8.84166 -3.16227,4.41166 -7.05819,12.53936 -8.99585,20.77196 -2.20143,9.35327 -4.11089,23.96956 1.91393,33.9476 2.08329,3.45024 5.43725,6.7488 8.92296,6.732 1.4457,-0.007 3.68302,-2.82768 3.68302,-2.82768 -1.61599,0.50461 -2.38825,0.13114 -3.32338,-0.48432 -1.95312,-1.28545 -3.30621,-3.91749 -3.67442,-5.97515 -0.76544,-4.27747 -0.30644,-10.21678 1.15793,-15.02006 0.98025,-3.21532 2.64458,-6.34564 4.96593,-8.77679 2.04016,-2.13666 4.74867,-4.05813 7.50384,-4.716 8.02744,-1.91677 11.04744,4.27176 12.11475,7.40001 0.85329,2.50095 0.72345,8.35729 0.0147,7.92749 -0.98173,-0.59534 -1.15676,-0.74781 -1.91261,-0.97191 -0.24842,0.98032 -0.4076,3.99567 0.71843,5.38262 0.69285,0.8534 2.64796,-0.26535 3.39316,-1.04554 2.74628,-2.87525 3.39821,-4.86377 4.01742,-7.68822 0.52857,-2.41102 0.17377,-4.98783 -0.36921,-7.39565 -0.39742,-1.76232 -1.01487,-3.43671 -2.07914,-5.00508 -1.53451,-2.26134 -3.55727,-4.08993 -6.09458,-4.4231 -2.00737,-0.26358 -4.19291,-0.30932 -6.25317,0.007 -1.5384,0.23611 -3.04568,0.73671 -4.45584,1.39536 -1.2747,0.59538 -2.44807,1.40749 -3.55237,2.27918 -1.50435,1.18747 -2.97294,2.4855 -4.14374,3.98596 -2.24324,2.87485 -3.53387,6.36156 -4.4712,9.984 -1.3826,5.34322 -2.13792,13.34115 -1.54182,16.7197 0,0 -0.49469,-0.84374 -0.67434,-1.3117 -0.34299,-0.89344 -4.70896,-12.65961 -2.65123,-27.48958 1.01254,-8.80588 3.33043,-14.91919 7.57857,-21.99496 0.7225,-1.19719 6.49204,-10.50034 10.62892,-9.33228 z"
       id="path26"
       sodipodi:nodetypes="caaaaacasaassscssaassaaasacaaacc" />
    <path
       style="display:inline;fill:#000000;stroke-width:0.412574;stroke-linecap:round;stroke-linejoin:bevel"
       d="m 230.0216,473.36959 c 1.87491,10.68245 -3.9134,16.06955 -6.19556,15.6072 -1.63537,-0.33132 -1.94313,-3.19171 -2.06853,-5.02854 -0.11595,-1.69848 -0.34677,-8.36937 2.77678,-12.2916 7.74823,-9.72943 19.78356,-0.70916 15.43564,8.87371 -1.75452,3.86699 -3.3541,7.86547 -5.2058,11.71745 -1.14501,2.38189 -2.41519,4.70166 -3.64791,7.03935 -2.40294,4.55682 -4.41016,9.25885 -7.30641,13.61855 -3.42724,5.15899 -6.7912,3.48219 -8.43348,6.42465 -1.61193,2.88811 -1.94008,5.78424 -2.93211,9.65536 -0.3422,1.33536 2.42973,-0.22405 3.54159,-0.72587 2.20785,-0.99649 4.20933,-2.59698 5.94002,-4.41366 2.10294,-2.20741 3.6659,-4.98934 5.22311,-7.69582 2.11617,-3.67798 3.6843,-7.7097 5.56121,-11.54382 1.3651,-2.7886 5.37849,-10.93516 9.33444,-10.04373 2.26535,0.51048 1.10116,6.00663 0.94461,9.03272 -0.22794,4.40596 0.0908,9.06183 1.37221,13.34665 1.03471,3.45983 2.51067,6.99077 4.99072,9.61572 1.31597,1.39286 2.65064,2.6952 4.94389,2.93334 0,0 2.41239,0.10062 3.66325,-0.98628 l -1.78695,-0.0997 c -1.94469,-0.56674 -3.45557,-3.34881 -4.61631,-5.4182 -1.85709,-3.31083 -2.6701,-7.12843 -3.5468,-10.82191 -0.76741,-3.23304 -1.48385,-7.80317 -1.48371,-9.85758 2.4e-4,-4.1737 0.54607,-8.37806 -2.98895,-9.44427 -2.19436,-0.66185 -5.22562,0.9201 -6.79764,2.25639 0,0 1.41258,-3.97438 2.03983,-5.99847 1.14898,-3.70766 2.68644,-7.35514 2.74077,-11.52967 0.0353,-2.7138 -0.22414,-5.32087 -1.32583,-7.67501 -1.09809,-2.34642 -3.77434,-3.76005 -6.14371,-4.06618 -1.69912,-0.21953 -7.61526,-0.28491 -11.82326,8.38231 -1.81964,3.74792 -3.56578,10.28235 -3.65513,12.10809 -0.0893,1.82574 0.14498,6.41804 3.12716,7.10451 7.55087,1.73814 10.73228,-13.09048 9.90133,-16.58298 -0.38717,-1.62729 -1.57847,-3.49272 -1.57847,-3.49272 z"
       id="path27"
       sodipodi:nodetypes="casasaasssaaasssaacccaasscsssaasssc" />
    <path
       d="m 341.1626,460.09373 c 0,0 -0.55853,5.82309 -1.67659,8.478 -3.64259,8.64956 -7.56008,19.73121 -15.94298,23.20714 -2.48479,0.8713 -5.82787,2.29821 -5.04511,2.94686 1.58623,1.21232 3.05599,1.93533 4.91058,1.62 1.722,-0.432 4.74156,-4.09063 6.7441,-6.48 1.85956,-2.21878 3.30855,-4.40451 4.83,-7.218 0,0 3.27282,3.07767 4.332,5.184 1.72365,3.4277 3.20018,7.56377 3.15,11.556 -0.11032,8.77487 -1.53231,21.97146 -7.56,25.21787 -4.40635,2.37319 -8.25947,0.25565 -10.16901,-2.68445 -2.0825,-3.20638 -0.56769,-8.34818 1.83501,-11.32219 0.86358,-1.06894 2.49862,-1.7985 3.84,-1.5 1.4399,0.32042 2.36172,1.76837 3.05025,3.20623 0.25844,0.5397 0.32025,1.85627 0.32025,1.85627 0,0 0.47107,-1.05383 0.441,-1.62677 -0.33707,-6.42093 -4.30732,-7.09849 -7.27697,-5.84056 -2.55395,1.08184 -3.9663,4.03475 -5.12661,6.55401 -3.56714,7.74501 2.04725,13.72789 3.88808,14.81346 2.79774,1.6499 6.51,1.728 9.744,0 3.234,-1.728 5.92315,-6.69837 7.644,-11.124 1.39351,-3.58382 1.95528,-7.79828 1.89,-11.772 -0.0952,-5.7937 -0.57107,-11.96187 -3.318,-17.06387 -1.39355,-2.5883 -2.835,-4.686 -6.3,-6.171 0,0 1.51267,-2.46462 3.62127,-7.39033 2.10859,-4.9257 2.61346,-5.14401 2.79165,-7.24411 0.17819,-2.1001 -0.61692,-7.20256 -0.61692,-7.20256 z"
       style="display:inline;fill:#000000;stroke-width:0.571482;stroke-linecap:round;stroke-linejoin:bevel"
       id="path1-2"
       sodipodi:nodetypes="cacccacsasaaascssaassaacssc" />
    <path
       style="display:inline;fill:#000000;stroke-width:0.116961"
       d="m 429.02748,475.97252 c -1.94818,3.88926 -4.01654,25.75938 -20.82736,38.8287 -0.59508,0.46264 -3.08838,-1.57938 -3.746,-1.19542 -0.17946,2.90245 1.26651,6.75841 1.26651,6.75841 3.06225,0.46824 21.54774,-4.46985 26.87385,-47.64614 0,0 -2.53642,1.19703 -3.567,3.25445 z m 7.92795,0.4213 c -0.13934,7.03158 -1.72609,33.64881 -27.87726,49.57422 -0.64035,0.38995 -3.08838,-1.57938 -3.746,-1.19543 -0.17947,2.90245 1.26651,6.75842 1.26651,6.75842 4.534,3.16026 34.99457,-15.35384 34.64205,-59.53924 -3.11193,2.87187 -4.24337,2.28599 -4.2853,4.40203 z"
       id="path11"
       sodipodi:nodetypes="sscccssscccs" />
    <path
       id="path18"
       style="display:inline;fill:#000000;stroke-width:0.453544"
       d="m 56.413786,661.48881 c -4.25795,0.14492 -28.997,0.78215 -28.62,33.9 0.37219,32.69465 34.96117,22.18606 38.04,19.08 2.24317,-2.26301 2.8978,-5.28368 2.55844,-5.67351 -0.22181,-0.2548 -7.20863,-3.50061 -10.57242,1.21945 -10.62914,14.91477 -22.28154,0.41755 -24.62602,-16.30594 -2.47007,-17.61941 3.65884,-26.39385 11.47547,-28.67039 8.36595,2.38997 -2.13811,23.35715 -4.0514,22.68633 -1.84913,-0.64831 1.08599,5.4474 1.59937,4.95586 14.24373,-21.64417 6.37779,-26.93302 3.90516,-27.98766 0.71804,-0.13375 1.44625,-0.21637 2.17968,-0.24937 4.6256,-0.20815 9.44662,1.34967 13.81172,2.14523 0.8029,-0.1147 -0.65903,-5.27156 -5.7,-5.1 z" />
    <path
       id="path20"
       style="display:inline;fill:#000000;stroke-width:0.453544"
       d="m 151.01509,661.42411 c -4.25795,0.14492 -28.997,0.78214 -28.62,33.9 0.37219,32.69464 34.96117,22.18605 38.04,19.08 2.24317,-2.26301 2.8978,-5.28368 2.55844,-5.67352 -0.22181,-0.2548 -7.20863,-3.50061 -10.57242,1.21946 -10.62914,14.91477 -22.28154,0.41755 -24.62602,-16.30594 -2.47007,-17.61942 3.65884,-26.39386 11.47547,-28.67039 8.36595,2.38997 -2.13811,23.35714 -4.0514,22.68633 -1.84913,-0.64832 1.08599,5.44739 1.59937,4.95586 14.24373,-21.64418 6.37779,-26.93302 3.90516,-27.98766 0.71804,-0.13375 1.44625,-0.21637 2.17968,-0.24938 0.30224,-0.0136 0.60518,-0.0198 0.90891,-0.019 7.39495,3.29959 1.32516,21.48809 -0.52289,20.84016 -1.84913,-0.64832 1.08599,5.44739 1.59938,4.95586 10.51062,-17.52081 4.25201,-23.6683 0.74625,-25.7154 3.76233,0.31047 7.56874,1.44364 11.08007,2.0836 0.8029,-0.1147 -0.65903,-5.27157 -5.7,-5.1 z" />
    <path
       id="path23"
       style="display:inline;fill:#000000;stroke-width:0.453544"
       d="m 247.54462,661.5212 c -4.25795,0.14492 -28.997,0.78214 -28.62,33.9 0.37219,32.69464 34.96117,22.18605 38.04,19.08 2.24317,-2.26301 2.8978,-5.28368 2.55844,-5.67352 -0.22181,-0.2548 -7.20863,-3.50061 -10.57242,1.21946 -8.81529,12.36958 -18.33431,4.50892 -22.66383,-8.07399 3.06502,1.41599 11.21888,2.41547 19.97274,-19.63617 0.10818,-0.70247 -6.56864,0.38972 -4.97696,1.53258 1.5784,1.13331 -8.59785,20.13012 -15.39492,16.88297 -0.69376,-2.2366 -1.22512,-4.60082 -1.56305,-7.01133 -2.84307,-20.28009 5.70598,-28.84213 15.10828,-29.26524 4.6256,-0.20815 9.44662,1.34967 13.81172,2.14524 0.8029,-0.1147 -0.65903,-5.27157 -5.7,-5.1 z" />
    <path
       id="path28"
       style="display:inline;fill:#000000;stroke-width:0.453544"
       d="m 333.15364,661.46881 c -4.25795,0.14492 -28.997,0.78215 -28.62,33.9 0.37219,32.69465 34.96117,22.18606 38.04,19.08 2.24317,-2.263 2.8978,-5.28368 2.55844,-5.67351 -0.22181,-0.2548 -7.20863,-3.50061 -10.57242,1.21945 -7.90439,11.09142 -16.37481,5.91737 -21.16219,-4.3418 2.47822,2.01057 8.50805,3.28144 16.6711,-16.28836 0.10818,-0.70247 -6.56864,0.38972 -4.97696,1.53258 1.63063,1.17082 -6.17211,17.74893 -12.65906,12.49102 -1.16004,-2.98853 -2.02205,-6.29791 -2.49891,-9.69938 -0.0562,-0.40058 -0.1078,-0.79658 -0.15515,-1.18804 3.22019,2.22271 10.36638,3.67802 18.52617,-16.87711 0.10818,-0.70247 -6.56864,0.38972 -4.97695,1.53257 1.59636,1.14622 -7.36692,19.20465 -13.76297,13.27641 -1.52656,-17.94561 6.5946,-25.60935 15.47718,-26.00906 4.6256,-0.20815 9.44662,1.34967 13.81172,2.14523 0.8029,-0.1147 -0.65903,-5.27156 -5.7,-5.1 z" />
    <path
       id="path32"
       style="display:inline;fill:#000000;stroke-width:0.453544"
       inkscape:label="vbase"
       d="m 433.22873,661.42343 c -4.25795,0.14492 -28.997,0.78215 -28.62,33.9 0.37219,32.69465 34.96117,22.18606 38.04,19.08 2.24317,-2.263 2.8978,-5.28368 2.55844,-5.67351 -0.22181,-0.2548 -7.20863,-3.50061 -10.57242,1.21945 -3.30167,4.63289 -6.70209,6.42802 -9.89156,6.19992 4.19519,-4.09328 10.40962,-15.76987 -1.35024,-26.94094 -0.51338,-0.49153 -3.19364,6.09512 -1.59937,4.95586 2.18393,-1.56062 7.81947,16.3934 1.56539,21.75774 -6.47078,-1.66284 -11.84045,-11.50901 -13.35024,-22.27852 -2.84307,-20.28009 5.70598,-28.84213 15.10828,-29.26523 4.6256,-0.20815 9.44662,1.34967 13.81172,2.14523 0.8029,-0.1147 -0.65903,-5.27156 -5.7,-5.1 z" />
    <path
       id="path34"
       style="display:inline;fill:#000000;stroke-width:0.453544"
       inkscape:label="vbase"
       d="m 531.50619,661.09171 c -4.25795,0.14492 -28.997,0.78215 -28.62,33.9 0.37219,32.69465 34.96118,22.18606 38.04,19.08 2.24318,-2.263 2.8978,-5.28368 2.55844,-5.67351 -0.22181,-0.2548 -7.20863,-3.50061 -10.57242,1.21945 -0.66844,0.93796 -1.34096,1.75964 -2.01492,2.47172 2.35102,-6.09707 2.91366,-17.81808 -9.58688,-29.69274 -0.51338,-0.49153 -3.19364,6.09512 -1.59937,4.95586 2.1296,-1.5218 13.12589,19.67852 9.08203,26.61024 -2.26258,1.64949 -4.51181,2.14452 -6.65039,1.74047 2.82284,-3.68616 5.71812,-13.8282 -4.31227,-25.02657 -0.51338,-0.49153 -3.19364,6.09512 -1.59937,4.95586 2.17723,-1.55583 10.45098,14.73652 4.89515,19.80914 -6.24135,-2.03489 -11.37009,-11.64488 -12.84,-22.12992 -2.84307,-20.28009 5.70599,-28.84213 15.10829,-29.26523 4.62559,-0.20815 9.44661,1.34967 13.81171,2.14523 0.8029,-0.1147 -0.65903,-5.27156 -5.7,-5.1 z" />
    <path
       id="path46"
       style="display:inline;fill:#000000;stroke-width:0.453544"
       inkscape:label="vbase"
       d="m 621.24477,661.45997 c -4.25795,0.14492 -28.997,0.78215 -28.62,33.9 0.37219,32.69465 34.96117,22.18606 38.04,19.08 2.24317,-2.263 2.8978,-5.28368 2.55844,-5.67351 -0.22181,-0.2548 -7.20863,-3.50061 -10.57242,1.21945 -10.62914,14.91478 -22.28154,0.41755 -24.62602,-16.30594 -1.14636,-8.17719 -0.44062,-14.44937 1.42641,-19.05093 1.71685,0.77361 5.64008,3.52207 3.16289,11.95078 -2.94305,10.01382 -0.97392,15.58846 4.41234,16.46156 4.20136,0.68103 13.37331,-1.51882 11.37024,-8.99438 -1.91615,-7.15115 -7.38235,-6.53437 -7.38235,-6.53437 l -1.18781,3.90305 c 0.81797,0.004 2.45472,-2.08951 4.45617,1.27171 8.5726,14.39672 -17.18881,11.43388 -9.46734,-5.38945 2.68095,-5.84119 5.50631,-14.61066 -4.21781,-15.0443 2.94351,-5.175 7.62311,-7.61784 12.53554,-7.8389 4.6256,-0.20815 9.44662,1.34967 13.81172,2.14523 0.8029,-0.1147 -0.65903,-5.27156 -5.7,-5.1 z" />
    <path
       id="path19"
       style="display:inline;fill:#000000;stroke-width:0.453544"
       inkscape:label="vbase"
       d="m 719.47858,661.52186 c -4.25795,0.14492 -28.997,0.78215 -28.62,33.9 0.37219,32.69465 34.96117,22.18606 38.04,19.08 2.24317,-2.263 2.8978,-5.28368 2.55844,-5.67351 -0.22181,-0.2548 -7.20863,-3.50061 -10.57242,1.21945 -10.62914,14.91478 -22.28154,0.41756 -24.62602,-16.30594 -1.23249,-8.79156 -0.32417,-15.38108 1.86657,-20.05992 3.56226,-1.36859 13.53502,-2.75269 6.80695,9.39071 -1.25604,2.26701 -2.15688,4.37826 -2.74078,6.31078 -8.14965,-2.22367 0.1204,-8.05657 -0.0284,-8.08735 0,0 -0.0368,-0.97784 -0.57961,-1.67859 -1.87812,-0.33113 -2.30531,0.44812 -2.30531,0.44812 -2.03647,2.12132 -1.35774,5.98219 -1.35774,5.98219 0.41841,3.12412 1.9419,4.59991 3.79852,5.1736 -1.45708,6.93858 1.54179,11.14922 6.8414,11.34187 4.59445,0.16701 11.5713,-1.97776 9.56649,-9.4568 -1.21169,-2.95285 -3.37132,-8.09654 -7.83047,-5.65922 -1.62719,0.88941 -2.66645,1.26977 -4.54102,2.1286 0.22651,-0.99966 0.54047,-2.05868 0.95391,-3.17602 2.45272,-6.62855 3.18244,-15.06729 -4.49672,-14.78414 -0.95974,0.0354 -2.0509,0.2069 -3.2864,0.53531 2.94858,-5.06238 7.58073,-7.45567 12.44085,-7.67437 4.6256,-0.20815 9.44662,1.34967 13.81172,2.14523 0.8029,-0.1147 -0.65903,-5.27156 -5.7,-5.1 z m -10.30804,28.60243 c 2.5033,-0.0856 4.53256,1.68735 6.49195,5.04117 1.23113,2.10727 1.10262,4.22404 -0.80721,5.41392 -0.89445,0.55727 -2.03997,1.0745 -3.98459,1.05459 -3.01883,-0.0309 -6.30558,-3.56675 -5.44547,-10.215 1.37162,-0.83287 2.60745,-1.25579 3.74532,-1.29468 z"
       sodipodi:nodetypes="sssssscsccccccscscsscscssssscs" />
    <path
       id="path15"
       style="display:inline;fill:#000000;stroke-width:0.453544"
       inkscape:label="vbase"
       d="m 809.06833,661.46791 c -4.258,0.14492 -28.997,0.78215 -28.62,33.9 0.3722,32.69465 34.9611,22.18606 38.04,19.08 2.2431,-2.263 2.8978,-5.28368 2.5584,-5.67351 -0.2218,-0.2548 -7.2086,-3.50061 -10.5724,1.21945 -10.6291,14.91477 -22.2815,0.41755 -24.626,-16.30594 -0.1076,-0.76727 -0.199,-1.51772 -0.2745,-2.25164 1.9684,-7.42104 8.3001,-8.82275 13.5558,-5.78836 2.9486,1.70235 3.7903,3.65264 3.5184,5.45907 -0.4649,3.08933 -4.0753,5.95394 -6.1971,6.04453 -0.4854,-0.0105 -0.4111,-0.56208 -0.3482,-0.74133 0.3239,-0.92384 -1.0356,-0.65358 -2.416,-0.0877 -1.3825,0.5668 -1.0459,0.50014 -0.7999,0.75703 10.8068,6.73571 10.6263,-8.17954 10.6228,-8.37164 -0.1031,-4.785 -2.1914,-6.26604 -4.8879,-6.14929 -7.6674,0.33195 -11.5402,2.86135 -13.3181,4.60406 -0.3248,-15.61311 7.3298,-22.36546 15.653,-22.74 4.6256,-0.20815 9.4466,1.34967 13.8117,2.14523 0.8029,-0.1147 -0.6591,-5.27156 -5.7,-5.1 z" />
    <path
       id="path43"
       style="display:inline;fill:#000000;stroke-width:0.453544"
       inkscape:label="vbase"
       d="m 909.8018,661.39381 c -4.25795,0.14492 -28.997,0.78215 -28.62,33.9 0.37219,32.69465 34.96118,22.18606 38.04,19.08 2.24318,-2.263 2.8978,-5.28368 2.55844,-5.67351 -0.22181,-0.2548 -7.20863,-3.50061 -10.57242,1.21945 -10.62914,14.91477 -22.28154,0.41756 -24.62602,-16.30594 -0.0896,-0.63921 -0.168,-1.26669 -0.23531,-1.88273 2.53884,-7.84843 12.07418,-9.7527 17.41992,-6.66633 2.94856,1.70235 3.93781,3.68109 3.51844,5.45906 -0.71932,3.04967 -4.50342,2.11816 -6.74859,0.67688 -0.82488,-0.40295 -0.41113,-0.56208 -0.34828,-0.74133 0.3239,-0.92384 -1.0356,-0.65358 -2.41594,-0.0877 -1.3825,0.5668 -1.17713,0.55265 -0.79992,0.75704 1.00714,0.60949 1.96918,0.98886 2.7457,1.44796 1.88702,1.11567 5.6935,2.39024 7.47305,-0.19921 -0.11381,8.54728 -10.79793,3.90009 -9.79899,2.29781 0.51793,-0.83075 -1.03559,-0.65358 -2.41594,-0.0877 -1.38249,0.5668 -1.12088,0.53389 -0.77742,0.75703 0.84449,0.51106 1.41821,1.05375 1.41821,1.05375 0,0 3.43595,2.95906 7.56,2.77172 4.88816,-1.16673 4.98439,-6.79304 4.96968,-11.04539 -0.0839,-3.89161 -0.34619,-7.37608 -11.18836,-6.01851 -4.52554,0.56665 -8.55957,2.357 -10.92304,4.87242 -0.2866,-15.5348 7.35149,-22.25642 15.65508,-22.63008 4.62559,-0.20815 9.44661,1.34967 13.81171,2.14523 0.8029,-0.1147 -0.65903,-5.27156 -5.7,-5.1 z" />
    <path
       id="path13"
       style="display:inline;fill:#000000;stroke-width:0.453544"
       d="m 39.852107,850.43588 c 4.25795,0.14492 28.997,0.78215 28.62,33.9 -0.37219,32.69465 -34.96117,22.18606 -38.04,19.08 -2.24317,-2.26301 -2.8978,-5.28368 -2.55844,-5.67351 0.22181,-0.2548 7.20863,-3.50061 10.57242,1.21945 10.62914,14.91477 22.28154,0.41755 24.62602,-16.30594 2.47007,-17.61941 -3.65884,-26.39385 -11.47547,-28.67039 -8.36595,2.38997 2.13811,23.35715 4.0514,22.68633 1.84913,-0.64831 -1.08599,5.4474 -1.59937,4.95586 -14.24373,-21.64417 -6.37779,-26.93302 -3.90516,-27.98766 -0.71804,-0.13375 -1.44625,-0.21637 -2.17968,-0.24937 -4.6256,-0.20815 -9.44662,1.34967 -13.81172,2.14523 -0.8029,-0.1147 0.65903,-5.27156 5.7,-5.1 z" />
    <path
       id="path21"
       style="display:inline;fill:#000000;stroke-width:0.453544"
       d="m 134.45341,850.3896 c 4.25795,0.14492 28.997,0.78214 28.62,33.9 -0.37219,32.69464 -34.96117,22.18605 -38.04,19.08 -2.24317,-2.26301 -2.8978,-5.28368 -2.55844,-5.67352 0.22181,-0.2548 7.20863,-3.50061 10.57242,1.21946 10.62914,14.91477 22.28154,0.41755 24.62602,-16.30594 2.47007,-17.61942 -3.65884,-26.39386 -11.47547,-28.67039 -8.36595,2.38997 2.13811,23.35714 4.0514,22.68633 1.84913,-0.64832 -1.08599,5.44739 -1.59937,4.95586 -14.24373,-21.64418 -6.37779,-26.93302 -3.90516,-27.98766 -0.71804,-0.13375 -1.44625,-0.21637 -2.17968,-0.24938 -0.30224,-0.0136 -0.60518,-0.0198 -0.90891,-0.019 -7.39495,3.29959 -1.32516,21.48809 0.52289,20.84016 1.84913,-0.64832 -1.08599,5.44739 -1.59938,4.95586 -10.51062,-17.52081 -4.25201,-23.6683 -0.74625,-25.7154 -3.76233,0.31047 -7.56874,1.44364 -11.08007,2.0836 -0.8029,-0.1147 0.65903,-5.27157 5.7,-5.1 z" />
    <path
       id="path29"
       style="display:inline;fill:#000000;stroke-width:0.453544"
       d="m 230.98294,850.50433 c 4.25795,0.14492 28.997,0.78214 28.62,33.9 -0.37219,32.69464 -34.96117,22.18605 -38.04,19.08 -2.24317,-2.26301 -2.8978,-5.28368 -2.55844,-5.67352 0.22181,-0.2548 7.20863,-3.50061 10.57242,1.21946 8.81529,12.36958 18.33431,4.50892 22.66383,-8.07399 -3.06502,1.41599 -11.21888,2.41547 -19.97274,-19.63617 -0.10818,-0.70247 6.56864,0.38972 4.97696,1.53258 -1.5784,1.13331 8.59785,20.13012 15.39492,16.88297 0.69376,-2.2366 1.22512,-4.60082 1.56305,-7.01133 2.84307,-20.28009 -5.70598,-28.84213 -15.10828,-29.26524 -4.6256,-0.20815 -9.44662,1.34967 -13.81172,2.14524 -0.8029,-0.1147 0.65903,-5.27157 5.7,-5.1 z" />
    <path
       id="path30"
       style="display:inline;fill:#000000;stroke-width:0.453544"
       d="m 316.59196,850.47743 c 4.25795,0.14492 28.997,0.78215 28.62,33.9 -0.37219,32.69465 -34.96117,22.18606 -38.04,19.08 -2.24317,-2.263 -2.8978,-5.28368 -2.55844,-5.67351 0.22181,-0.2548 7.20863,-3.50061 10.57242,1.21945 7.90439,11.09142 16.37481,5.91737 21.16219,-4.3418 -2.47822,2.01057 -8.50805,3.28144 -16.6711,-16.28836 -0.10818,-0.70247 6.56864,0.38972 4.97696,1.53258 -1.63063,1.17082 6.17211,17.74893 12.65906,12.49102 1.16004,-2.98853 2.02205,-6.29791 2.49891,-9.69938 0.0562,-0.40058 0.1078,-0.79658 0.15515,-1.18804 -3.22019,2.22271 -10.36638,3.67802 -18.52617,-16.87711 -0.10818,-0.70247 6.56864,0.38972 4.97695,1.53257 -1.59636,1.14622 7.36692,19.20465 13.76297,13.27641 1.52656,-17.94561 -6.5946,-25.60935 -15.47718,-26.00906 -4.6256,-0.20815 -9.44662,1.34967 -13.81172,2.14523 -0.8029,-0.1147 0.65903,-5.27156 5.7,-5.1 z" />
    <path
       id="path31"
       style="display:inline;fill:#000000;stroke-width:0.453544"
       inkscape:label="vbase"
       d="m 416.66705,850.49089 c 4.25795,0.14492 28.997,0.78215 28.62,33.9 -0.37219,32.69465 -34.96117,22.18606 -38.04,19.08 -2.24317,-2.263 -2.8978,-5.28368 -2.55844,-5.67351 0.22181,-0.2548 7.20863,-3.50061 10.57242,1.21945 3.30167,4.63289 6.70209,6.42802 9.89156,6.19992 -4.19519,-4.09328 -10.40962,-15.76987 1.35024,-26.94094 0.51338,-0.49153 3.19364,6.09512 1.59937,4.95586 -2.18393,-1.56062 -7.81947,16.3934 -1.56539,21.75774 6.47078,-1.66284 11.84045,-11.50901 13.35024,-22.27852 2.84307,-20.28009 -5.70598,-28.84213 -15.10828,-29.26523 -4.6256,-0.20815 -9.44662,1.34967 -13.81172,2.14523 -0.8029,-0.1147 0.65903,-5.27156 5.7,-5.1 z" />
    <path
       id="path33"
       style="display:inline;fill:#000000;stroke-width:0.453544"
       inkscape:label="vbase"
       d="m 514.94451,850.46961 c 4.25795,0.14492 28.997,0.78215 28.62,33.9 -0.37219,32.69465 -34.96118,22.18606 -38.04,19.08 -2.24318,-2.263 -2.8978,-5.28368 -2.55844,-5.67351 0.22181,-0.2548 7.20863,-3.50061 10.57242,1.21945 0.66844,0.93796 1.34096,1.75964 2.01492,2.47172 -2.35102,-6.09707 -2.91366,-17.81808 9.58688,-29.69274 0.51338,-0.49153 3.19364,6.09512 1.59937,4.95586 -2.1296,-1.5218 -13.12589,19.67852 -9.08203,26.61024 2.26258,1.64949 4.51181,2.14452 6.65039,1.74047 -2.82284,-3.68616 -5.71812,-13.8282 4.31227,-25.02657 0.51338,-0.49153 3.19364,6.09512 1.59937,4.95586 -2.17723,-1.55583 -10.45098,14.73652 -4.89515,19.80914 6.24135,-2.03489 11.37009,-11.64488 12.84,-22.12992 2.84307,-20.28009 -5.70599,-28.84213 -15.10829,-29.26523 -4.62559,-0.20815 -9.44661,1.34967 -13.81171,2.14523 -0.8029,-0.1147 0.65903,-5.27156 5.7,-5.1 z" />
    <path
       id="path35"
       style="display:inline;fill:#000000;stroke-width:0.453544"
       inkscape:label="vbase"
       d="m 604.68309,850.42291 c 4.25795,0.14492 28.997,0.78215 28.62,33.9 -0.37219,32.69465 -34.96117,22.18606 -38.04,19.08 -2.24317,-2.263 -2.8978,-5.28368 -2.55844,-5.67351 0.22181,-0.2548 7.20863,-3.50061 10.57242,1.21945 10.62914,14.91478 22.28154,0.41755 24.62602,-16.30594 1.14636,-8.17719 0.44062,-14.44937 -1.42641,-19.05093 -1.71685,0.77361 -5.64008,3.52207 -3.16289,11.95078 2.94305,10.01382 0.97392,15.58846 -4.41234,16.46156 -4.20136,0.68103 -13.37331,-1.51882 -11.37024,-8.99438 1.91615,-7.15115 7.38235,-6.53437 7.38235,-6.53437 l 1.18781,3.90305 c -0.81797,0.004 -2.45472,-2.08951 -4.45617,1.27171 -8.5726,14.39672 17.18881,11.43388 9.46734,-5.38945 -2.68095,-5.84119 -5.50631,-14.61066 4.21781,-15.0443 -2.94351,-5.175 -7.62311,-7.61784 -12.53554,-7.8389 -4.6256,-0.20815 -9.44662,1.34967 -13.81172,2.14523 -0.8029,-0.1147 0.65903,-5.27156 5.7,-5.1 z" />
    <path
       id="path36"
       style="display:inline;fill:#000000;stroke-width:0.453544"
       inkscape:label="vbase"
       d="m 702.9169,850.46147 c 4.25795,0.14492 28.997,0.78215 28.62,33.9 -0.37219,32.69465 -34.96117,22.18606 -38.04,19.08 -2.24317,-2.263 -2.8978,-5.28368 -2.55844,-5.67351 0.22181,-0.2548 7.20863,-3.50061 10.57242,1.21945 10.62914,14.91478 22.28154,0.41756 24.62602,-16.30594 1.23249,-8.79156 0.32417,-15.38108 -1.86657,-20.05992 -3.56226,-1.36859 -13.53502,-2.75269 -6.80695,9.39071 1.25604,2.26701 2.15688,4.37826 2.74078,6.31078 8.14965,-2.22367 -0.1204,-8.05657 0.0284,-8.08735 0,0 0.0368,-0.97784 0.57961,-1.67859 1.87812,-0.33113 2.30531,0.44812 2.30531,0.44812 2.03647,2.12132 1.35774,5.98219 1.35774,5.98219 -0.41841,3.12412 -1.9419,4.59991 -3.79852,5.1736 1.45708,6.93858 -1.54179,11.14922 -6.8414,11.34187 -4.59445,0.16701 -11.5713,-1.97776 -9.56649,-9.4568 1.21169,-2.95285 3.37132,-8.09654 7.83047,-5.65922 1.62719,0.88941 2.66645,1.26977 4.54102,2.1286 -0.22651,-0.99966 -0.54047,-2.05868 -0.95391,-3.17602 -2.45272,-6.62855 -3.18244,-15.06729 4.49672,-14.78414 0.95974,0.0354 2.0509,0.2069 3.2864,0.53531 -2.94858,-5.06238 -7.58073,-7.45567 -12.44085,-7.67437 -4.6256,-0.20815 -9.44662,1.34967 -13.81172,2.14523 -0.8029,-0.1147 0.65903,-5.27156 5.7,-5.1 z m 10.30804,28.60243 c -2.5033,-0.0856 -4.53256,1.68735 -6.49195,5.04117 -1.23113,2.10727 -1.10262,4.22404 0.80721,5.41392 0.89445,0.55727 2.03997,1.0745 3.98459,1.05459 3.01883,-0.0309 6.30558,-3.56675 5.44547,-10.215 -1.37162,-0.83287 -2.60745,-1.25579 -3.74532,-1.29468 z"
       sodipodi:nodetypes="sssssscsccccccscscsscscssssscs" />
    <path
       id="path37"
       style="display:inline;fill:#000000;stroke-width:0.453544"
       inkscape:label="vbase"
       d="m 792.50662,850.47383 c 4.258,0.14492 28.997,0.78215 28.62,33.9 -0.3722,32.69465 -34.9611,22.18606 -38.04,19.08 -2.2431,-2.263 -2.8978,-5.28368 -2.5584,-5.67351 0.2218,-0.2548 7.2086,-3.50061 10.5724,1.21945 10.6291,14.91477 22.2815,0.41755 24.626,-16.30594 0.1076,-0.76727 0.199,-1.51772 0.2745,-2.25164 -1.9684,-7.42104 -8.3001,-8.82275 -13.5558,-5.78836 -2.9486,1.70235 -3.7903,3.65264 -3.5184,5.45907 0.4649,3.08933 4.0753,5.95394 6.1971,6.04453 0.4854,-0.0105 0.4111,-0.56208 0.3482,-0.74133 -0.3239,-0.92384 1.0356,-0.65358 2.416,-0.0877 1.3825,0.5668 1.0459,0.50014 0.7999,0.75703 -10.8068,6.73571 -10.6263,-8.17954 -10.6228,-8.37164 0.1031,-4.785 2.1914,-6.26604 4.8879,-6.14929 7.6674,0.33195 11.5402,2.86135 13.3181,4.60406 0.3248,-15.61311 -7.3298,-22.36546 -15.653,-22.74 -4.6256,-0.20815 -9.4466,1.34967 -13.8117,2.14523 -0.8029,-0.1147 0.6591,-5.27156 5.7,-5.1 z" />
    <path
       id="path38"
       style="display:inline;fill:#000000;stroke-width:0.453544"
       inkscape:label="vbase"
       d="m 893.24012,850.44197 c 4.25795,0.14492 28.997,0.78215 28.62,33.9 -0.37219,32.69465 -34.96118,22.18606 -38.04,19.08 -2.24318,-2.263 -2.8978,-5.28368 -2.55844,-5.67351 0.22181,-0.2548 7.20863,-3.50061 10.57242,1.21945 10.62914,14.91477 22.28154,0.41756 24.62602,-16.30594 0.0896,-0.63921 0.168,-1.26669 0.23531,-1.88273 -2.53884,-7.84843 -12.07418,-9.7527 -17.41992,-6.66633 -2.94856,1.70235 -3.93781,3.68109 -3.51844,5.45906 0.71932,3.04967 4.50342,2.11816 6.74859,0.67688 0.82488,-0.40295 0.41113,-0.56208 0.34828,-0.74133 -0.3239,-0.92384 1.0356,-0.65358 2.41594,-0.0877 1.3825,0.5668 1.17713,0.55265 0.79992,0.75704 -1.00714,0.60949 -1.96918,0.98886 -2.7457,1.44796 -1.88702,1.11567 -5.6935,2.39024 -7.47305,-0.19921 0.11381,8.54728 10.79793,3.90009 9.79899,2.29781 -0.51793,-0.83075 1.03559,-0.65358 2.41594,-0.0877 1.38249,0.5668 1.12088,0.53389 0.77742,0.75703 -0.84449,0.51106 -1.41821,1.05375 -1.41821,1.05375 0,0 -3.43595,2.95906 -7.56,2.77172 -4.88816,-1.16673 -4.98439,-6.79304 -4.96968,-11.04539 0.0839,-3.89161 0.34619,-7.37608 11.18836,-6.01851 4.52554,0.56665 8.55957,2.357 10.92304,4.87242 0.2866,-15.5348 -7.35149,-22.25642 -15.65508,-22.63008 -4.62559,-0.20815 -9.44661,1.34967 -13.81171,2.14523 -0.8029,-0.1147 0.65903,-5.27156 5.7,-5.1 z" />
  </g>
  <g
     inkscape:groupmode="layer"
     id="layer49"
     inkscape:label="Layer 2"
     transform="translate(-16.635395,-21.13557)">
    <text
       xml:space="preserve"
       style="font-size:42.6667px;text-align:center;writing-mode:lr-tb;direction:ltr;text-anchor:middle;fill:#000000;stroke-width:3;stroke-linecap:round;stroke-linejoin:bevel"
       x="50.565716"
       y="143.77209"
       id="text38"><tspan
         sodipodi:role="line"
         id="tspan38"
         x="50.565716"
         y="143.77209"
         style="fill:#0000ff">p</tspan><tspan
         sodipodi:role="line"
         x="50.565716"
         y="197.10547"
         id="tspan39"
         style="fill:#999999">/p/</tspan></text>
    <text
       xml:space="preserve"
       style="font-size:42.6667px;text-align:center;writing-mode:lr-tb;direction:ltr;text-anchor:middle;fill:#000000;stroke-width:3;stroke-linecap:round;stroke-linejoin:bevel"
       x="44.916687"
       y="364.89584"
       id="text38-94"><tspan
         sodipodi:role="line"
         id="tspan38-6"
         x="44.916687"
         y="364.89584"
         style="fill:#0000ff">f</tspan><tspan
         sodipodi:role="line"
         x="44.916687"
         y="418.22922"
         id="tspan39-9"
         style="fill:#999999">/f/</tspan></text>
    <text
       xml:space="preserve"
       style="font-size:42.6667px;text-align:center;writing-mode:lr-tb;direction:ltr;text-anchor:middle;fill:#000000;stroke-width:3;stroke-linecap:round;stroke-linejoin:bevel"
       x="137.88544"
       y="367.41669"
       id="text38-94-5"><tspan
         sodipodi:role="line"
         id="tspan38-6-4"
         x="137.88544"
         y="367.41669"
         style="fill:#0000ff">th</tspan><tspan
         sodipodi:role="line"
         x="137.88544"
         y="420.75006"
         id="tspan39-9-8"
         style="fill:#999999">//</tspan></text>
    <text
       xml:space="preserve"
       style="font-size:42.6667px;text-align:center;writing-mode:lr-tb;direction:ltr;text-anchor:middle;fill:#000000;stroke-width:3;stroke-linecap:round;stroke-linejoin:bevel"
       x="234.42711"
       y="365.41669"
       id="text38-94-5-6"><tspan
         sodipodi:role="line"
         id="tspan38-6-4-8"
         x="234.42711"
         y="365.41669"
         style="fill:#0000ff">s</tspan><tspan
         sodipodi:role="line"
         x="234.42711"
         y="418.75006"
         id="tspan39-9-8-0"
         style="fill:#999999">/s/</tspan></text>
    <text
       xml:space="preserve"
       style="font-size:42.6667px;text-align:center;writing-mode:lr-tb;direction:ltr;text-anchor:middle;fill:#000000;stroke-width:3;stroke-linecap:round;stroke-linejoin:bevel"
       x="323.48959"
       y="364.86533"
       id="text38-94-5-6-1"><tspan
         sodipodi:role="line"
         id="tspan38-6-4-8-1"
         x="323.48959"
         y="364.86533"
         style="fill:#0000ff">z</tspan><tspan
         sodipodi:role="line"
         x="323.48959"
         y="418.1987"
         id="tspan39-9-8-0-0"
         style="fill:#999999">/z/</tspan></text>
    <text
       xml:space="preserve"
       style="font-size:42.6667px;text-align:center;writing-mode:lr-tb;direction:ltr;text-anchor:middle;fill:#000000;stroke-width:3;stroke-linecap:round;stroke-linejoin:bevel"
       x="423.96255"
       y="364.28757"
       id="text38-94-5-6-1-4"><tspan
         sodipodi:role="line"
         id="tspan38-6-4-8-1-6"
         x="423.96255"
         y="364.28757"
         style="fill:#0000ff">c</tspan><tspan
         sodipodi:role="line"
         x="423.96255"
         y="417.62094"
         id="tspan39-9-8-0-0-2"
         style="fill:#999999">//</tspan></text>
    <text
       xml:space="preserve"
       style="font-size:42.6667px;text-align:center;writing-mode:lr-tb;direction:ltr;text-anchor:middle;fill:#000000;stroke-width:3;stroke-linecap:round;stroke-linejoin:bevel"
       x="516.50403"
       y="364.40753"
       id="text38-94-5-6-1-4-8"><tspan
         sodipodi:role="line"
         id="tspan38-6-4-8-1-6-4"
         x="516.50403"
         y="364.40753"
         style="fill:#0000ff">x</tspan><tspan
         sodipodi:role="line"
         x="516.50403"
         y="417.74091"
         id="tspan39-9-8-0-0-2-7"
         style="fill:#999999">//</tspan></text>
    <text
       xml:space="preserve"
       style="font-size:42.6667px;text-align:center;writing-mode:lr-tb;direction:ltr;text-anchor:middle;fill:#000000;stroke-width:3;stroke-linecap:round;stroke-linejoin:bevel"
       x="610.68268"
       y="362.98236"
       id="text38-94-5-6-1-4-8-2"><tspan
         sodipodi:role="line"
         id="tspan38-6-4-8-1-6-4-9"
         x="610.68268"
         y="362.98236"
         style="fill:#0000ff">m</tspan><tspan
         sodipodi:role="line"
         x="610.68268"
         y="416.31573"
         id="tspan39-9-8-0-0-2-7-9"
         style="fill:#999999">/m/</tspan></text>
    <text
       xml:space="preserve"
       style="font-size:42.6667px;text-align:center;writing-mode:lr-tb;direction:ltr;text-anchor:middle;fill:#000000;stroke-width:3;stroke-linecap:round;stroke-linejoin:bevel"
       x="712.89685"
       y="362.83481"
       id="text38-94-5-6-1-4-8-2-1"><tspan
         sodipodi:role="line"
         id="tspan38-6-4-8-1-6-4-9-1"
         x="712.89685"
         y="362.83481"
         style="fill:#0000ff">n</tspan><tspan
         sodipodi:role="line"
         x="712.89685"
         y="416.16818"
         id="tspan39-9-8-0-0-2-7-9-0"
         style="fill:#999999">/n/</tspan></text>
    <text
       xml:space="preserve"
       style="font-size:42.6667px;text-align:center;writing-mode:lr-tb;direction:ltr;text-anchor:middle;fill:#000000;stroke-width:3;stroke-linecap:round;stroke-linejoin:bevel"
       x="807.52966"
       y="361.62119"
       id="text38-94-5-6-1-4-8-2-1-9"><tspan
         sodipodi:role="line"
         id="tspan38-6-4-8-1-6-4-9-1-1"
         x="807.52966"
         y="361.62119"
         style="fill:#0000ff">l</tspan><tspan
         sodipodi:role="line"
         x="807.52966"
         y="414.95456"
         id="tspan39-9-8-0-0-2-7-9-0-9"
         style="fill:#999999">/l/</tspan></text>
    <text
       xml:space="preserve"
       style="font-size:42.6667px;text-align:center;writing-mode:lr-tb;direction:ltr;text-anchor:middle;fill:#000000;stroke-width:3;stroke-linecap:round;stroke-linejoin:bevel"
       x="898.22583"
       y="361.00467"
       id="text38-94-5-6-1-4-8-2-1-9-8"><tspan
         sodipodi:role="line"
         id="tspan38-6-4-8-1-6-4-9-1-1-0"
         x="898.22583"
         y="361.00467"
         style="fill:#0000ff">r</tspan><tspan
         sodipodi:role="line"
         x="898.22583"
         y="414.33804"
         style="fill:#999999"
         id="tspan40">//</tspan></text>
    <text
       xml:space="preserve"
       style="font-size:42.6667px;text-align:center;writing-mode:lr-tb;direction:ltr;text-anchor:middle;fill:#000000;stroke-width:3;stroke-linecap:round;stroke-linejoin:bevel"
       x="989.62646"
       y="359.71274"
       id="text38-94-5-6-1-4-8-2-1-9-8-0"><tspan
         sodipodi:role="line"
         id="tspan38-6-4-8-1-6-4-9-1-1-0-4"
         x="989.62646"
         y="359.71274"
         style="fill:#0000ff">v</tspan><tspan
         sodipodi:role="line"
         x="989.62646"
         y="413.04611"
         style="fill:#999999"
         id="tspan41">//</tspan></text>
    <text
       xml:space="preserve"
       style="font-size:42.6667px;text-align:center;writing-mode:lr-tb;direction:ltr;text-anchor:middle;fill:#000000;stroke-width:3;stroke-linecap:round;stroke-linejoin:bevel"
       x="49.770836"
       y="572.2876"
       id="text38-94-5-6-1-4-8-2-1-9-8-0-6"><tspan
         sodipodi:role="line"
         id="tspan38-6-4-8-1-6-4-9-1-1-0-4-9"
         x="49.770836"
         y="572.2876"
         style="fill:#0000ff">tv</tspan><tspan
         sodipodi:role="line"
         x="49.770836"
         y="625.62097"
         style="fill:#999999"
         id="tspan41-8">/t/</tspan></text>
    <text
       xml:space="preserve"
       style="font-size:42.6667px;text-align:center;writing-mode:lr-tb;direction:ltr;text-anchor:middle;fill:#000000;stroke-width:3;stroke-linecap:round;stroke-linejoin:bevel"
       x="141.08966"
       y="570.77527"
       id="text38-94-5-6-1-4-8-2-1-9-8-0-6-9"><tspan
         sodipodi:role="line"
         id="tspan38-6-4-8-1-6-4-9-1-1-0-4-9-9"
         x="141.08966"
         y="570.77527"
         style="fill:#0000ff">w</tspan><tspan
         sodipodi:role="line"
         x="141.08966"
         y="624.10864"
         style="fill:#999999"
         id="tspan41-8-6">/w/</tspan></text>
    <text
       xml:space="preserve"
       style="font-size:42.6667px;text-align:center;writing-mode:lr-tb;direction:ltr;text-anchor:middle;fill:#000000;stroke-width:3;stroke-linecap:round;stroke-linejoin:bevel"
       x="230.74664"
       y="568.33337"
       id="text38-94-5-6-1-4-8-2-1-9-8-0-6-9-1"><tspan
         sodipodi:role="line"
         id="tspan38-6-4-8-1-6-4-9-1-1-0-4-9-9-3"
         x="230.74664"
         y="568.33337"
         style="fill:#0000ff">y</tspan><tspan
         sodipodi:role="line"
         x="230.74664"
         y="621.66675"
         style="fill:#999999"
         id="tspan41-8-6-2">/j/</tspan></text>
    <text
       xml:space="preserve"
       style="font-size:42.6667px;text-align:center;writing-mode:lr-tb;direction:ltr;text-anchor:middle;fill:#000000;stroke-width:3;stroke-linecap:round;stroke-linejoin:bevel"
       x="331.27158"
       y="569.9519"
       id="text38-94-5-6-1-4-8-2-1-9-8-0-6-9-1-4"><tspan
         sodipodi:role="line"
         id="tspan38-6-4-8-1-6-4-9-1-1-0-4-9-9-3-9"
         x="331.27158"
         y="569.9519"
         style="fill:#0000ff">h</tspan><tspan
         sodipodi:role="line"
         x="331.27158"
         y="623.28528"
         style="fill:#999999"
         id="tspan41-8-6-2-1">/h/</tspan></text>
    <text
       xml:space="preserve"
       style="font-size:42.6667px;text-align:center;writing-mode:lr-tb;direction:ltr;text-anchor:middle;fill:#000000;stroke-width:3;stroke-linecap:round;stroke-linejoin:bevel"
       x="418.728"
       y="570.03522"
       id="text38-94-5-6-1-4-8-2-1-9-8-0-6-9-1-4-0"><tspan
         sodipodi:role="line"
         id="tspan38-6-4-8-1-6-4-9-1-1-0-4-9-9-3-9-4"
         x="418.728"
         y="570.03522"
         style="fill:#0000ff">q</tspan><tspan
         sodipodi:role="line"
         x="418.728"
         y="623.36859"
         style="fill:#999999"
         id="tspan41-8-6-2-1-8">/-/</tspan></text>
    <text
       xml:space="preserve"
       style="font-size:42.6667px;text-align:center;writing-mode:lr-tb;direction:ltr;text-anchor:middle;fill:#000000;stroke-width:3;stroke-linecap:round;stroke-linejoin:bevel"
       x="49.042408"
       y="770.65173"
       id="text38-94-5-6-1-4-8-2-1-9-8-0-6-9-1-4-0-1"><tspan
         sodipodi:role="line"
         id="tspan38-6-4-8-1-6-4-9-1-1-0-4-9-9-3-9-4-0"
         x="49.042408"
         y="770.65173"
         style="fill:#0000ff">a</tspan><tspan
         sodipodi:role="line"
         x="49.042408"
         y="823.98511"
         style="fill:#999999"
         id="tspan41-8-6-2-1-8-4">/a/</tspan></text>
    <text
       xml:space="preserve"
       style="font-size:42.6667px;text-align:center;writing-mode:lr-tb;direction:ltr;text-anchor:middle;fill:#000000;stroke-width:3;stroke-linecap:round;stroke-linejoin:bevel"
       x="138.44794"
       y="769.86536"
       id="text38-94-5-6-1-4-8-2-1-9-8-0-6-9-1-4-0-1-5"><tspan
         sodipodi:role="line"
         id="tspan38-6-4-8-1-6-4-9-1-1-0-4-9-9-3-9-4-0-5"
         x="138.44794"
         y="769.86536"
         style="fill:#0000ff">ai</tspan><tspan
         sodipodi:role="line"
         x="138.44794"
         y="823.19873"
         style="fill:#999999"
         id="tspan41-8-6-2-1-8-4-2">/ai/</tspan></text>
    <text
       xml:space="preserve"
       style="font-size:42.6667px;text-align:center;writing-mode:lr-tb;direction:ltr;text-anchor:middle;fill:#000000;stroke-width:3;stroke-linecap:round;stroke-linejoin:bevel"
       x="243.42081"
       y="769.29462"
       id="text38-94-5-6-1-4-8-2-1-9-8-0-6-9-1-4-0-1-5-8"><tspan
         sodipodi:role="line"
         id="tspan38-6-4-8-1-6-4-9-1-1-0-4-9-9-3-9-4-0-5-0"
         x="243.42081"
         y="769.29462"
         style="fill:#0000ff">e</tspan><tspan
         sodipodi:role="line"
         x="243.42081"
         y="822.62799"
         style="fill:#999999"
         id="tspan41-8-6-2-1-8-4-2-4">//</tspan></text>
    <text
       xml:space="preserve"
       style="font-size:42.6667px;text-align:center;writing-mode:lr-tb;direction:ltr;text-anchor:middle;fill:#000000;stroke-width:3;stroke-linecap:round;stroke-linejoin:bevel"
       x="333.92154"
       y="769.62122"
       id="text38-94-5-6-1-4-8-2-1-9-8-0-6-9-1-4-0-1-5-8-2"><tspan
         sodipodi:role="line"
         id="tspan38-6-4-8-1-6-4-9-1-1-0-4-9-9-3-9-4-0-5-0-5"
         x="333.92154"
         y="769.62122"
         style="fill:#0000ff">ei</tspan><tspan
         sodipodi:role="line"
         x="333.92154"
         y="822.95459"
         style="fill:#999999"
         id="tspan41-8-6-2-1-8-4-2-4-4">/i/</tspan></text>
    <text
       xml:space="preserve"
       style="font-size:42.6667px;text-align:center;writing-mode:lr-tb;direction:ltr;text-anchor:middle;fill:#000000;stroke-width:3;stroke-linecap:round;stroke-linejoin:bevel"
       x="430.94019"
       y="769.49298"
       id="text38-94-5-6-1-4-8-2-1-9-8-0-6-9-1-4-0-1-5-8-2-6"><tspan
         sodipodi:role="line"
         id="tspan38-6-4-8-1-6-4-9-1-1-0-4-9-9-3-9-4-0-5-0-5-0"
         x="430.94019"
         y="769.49298"
         style="fill:#0000ff">i</tspan><tspan
         sodipodi:role="line"
         x="430.94019"
         y="822.82635"
         style="fill:#999999"
         id="tspan41-8-6-2-1-8-4-2-4-4-5">/i/</tspan></text>
    <text
       xml:space="preserve"
       style="font-size:42.6667px;text-align:center;writing-mode:lr-tb;direction:ltr;text-anchor:middle;fill:#000000;stroke-width:3;stroke-linecap:round;stroke-linejoin:bevel"
       x="522.21057"
       y="769.91315"
       id="text38-94-5-6-1-4-8-2-1-9-8-0-6-9-1-4-0-1-5-8-2-6-3"><tspan
         sodipodi:role="line"
         id="tspan38-6-4-8-1-6-4-9-1-1-0-4-9-9-3-9-4-0-5-0-5-0-5"
         x="522.21057"
         y="769.91315"
         style="fill:#0000ff">oi</tspan><tspan
         sodipodi:role="line"
         x="522.21057"
         y="823.24652"
         style="fill:#999999"
         id="tspan41-8-6-2-1-8-4-2-4-4-5-1">/oi/</tspan></text>
    <text
       xml:space="preserve"
       style="font-size:42.6667px;text-align:center;writing-mode:lr-tb;direction:ltr;text-anchor:middle;fill:#000000;stroke-width:3;stroke-linecap:round;stroke-linejoin:bevel"
       x="616.33893"
       y="768.34039"
       id="text38-94-5-6-1-4-8-2-1-9-8-0-6-9-1-4-0-1-5-8-2-6-3-4"><tspan
         sodipodi:role="line"
         id="tspan38-6-4-8-1-6-4-9-1-1-0-4-9-9-3-9-4-0-5-0-5-0-5-6"
         x="616.33893"
         y="768.34039"
         style="fill:#0000ff">o</tspan><tspan
         sodipodi:role="line"
         x="616.33893"
         y="821.67377"
         style="fill:#999999"
         id="tspan41-8-6-2-1-8-4-2-4-4-5-1-9">//</tspan></text>
    <text
       xml:space="preserve"
       style="font-size:42.6667px;text-align:center;writing-mode:lr-tb;direction:ltr;text-anchor:middle;fill:#000000;stroke-width:3;stroke-linecap:round;stroke-linejoin:bevel"
       x="710.2616"
       y="774.69751"
       id="text38-94-5-6-1-4-8-2-1-9-8-0-6-9-1-4-0-1-5-8-2-6-3-4-4"><tspan
         sodipodi:role="line"
         id="tspan38-6-4-8-1-6-4-9-1-1-0-4-9-9-3-9-4-0-5-0-5-0-5-6-1"
         x="710.2616"
         y="774.69751"
         style="fill:#0000ff">ou</tspan><tspan
         sodipodi:role="line"
         x="710.2616"
         y="828.03088"
         style="fill:#999999"
         id="tspan41-8-6-2-1-8-4-2-4-4-5-1-9-2">/o/</tspan></text>
    <text
       xml:space="preserve"
       style="font-size:42.6667px;text-align:center;writing-mode:lr-tb;direction:ltr;text-anchor:middle;fill:#000000;stroke-width:3;stroke-linecap:round;stroke-linejoin:bevel"
       x="142.91669"
       y="153.65169"
       id="text38-9"><tspan
         sodipodi:role="line"
         id="tspan38-0"
         x="142.91669"
         y="153.65169"
         style="fill:#0000ff">b</tspan><tspan
         sodipodi:role="line"
         x="142.91669"
         y="206.98506"
         id="tspan39-8"
         style="fill:#999999">/b/</tspan></text>
    <g
       id="layer49-9"
       transform="translate(188.80163,1.6354472)">
      <text
         xml:space="preserve"
         style="font-size:42.6667px;text-align:center;writing-mode:lr-tb;direction:ltr;text-anchor:middle;fill:#000000;stroke-width:3;stroke-linecap:round;stroke-linejoin:bevel"
         x="49.580975"
         y="149.68054"
         id="text38-6"><tspan
           sodipodi:role="line"
           id="tspan38-3"
           x="49.580975"
           y="149.68054"
           style="fill:#0000ff">t</tspan><tspan
           sodipodi:role="line"
           x="49.580975"
           y="203.01392"
           id="tspan39-85"
           style="fill:#999999">/t/</tspan></text>
      <g
         id="layer49-98"
         transform="translate(93.518826,14.908442)">
        <text
           xml:space="preserve"
           style="font-size:42.6667px;text-align:center;writing-mode:lr-tb;direction:ltr;text-anchor:middle;fill:#000000;stroke-width:3;stroke-linecap:round;stroke-linejoin:bevel"
           x="49.580975"
           y="135.89418"
           id="text38-4"><tspan
             sodipodi:role="line"
             id="tspan38-8"
             x="49.580975"
             y="135.89418"
             style="fill:#0000ff">d</tspan><tspan
             sodipodi:role="line"
             x="49.580975"
             y="189.22755"
             id="tspan39-1"
             style="fill:#999999">/d/</tspan></text>
      </g>
      <text
         xml:space="preserve"
         style="font-size:42.6667px;text-align:center;writing-mode:lr-tb;direction:ltr;text-anchor:middle;fill:#000000;stroke-width:3;stroke-linecap:round;stroke-linejoin:bevel"
         x="234.11507"
         y="149.71106"
         id="text38-44"><tspan
           sodipodi:role="line"
           id="tspan38-4"
           x="234.11507"
           y="149.71106"
           style="fill:#0000ff">k</tspan><tspan
           sodipodi:role="line"
           x="234.11507"
           y="203.04443"
           id="tspan39-7"
           style="fill:#999999">/k/</tspan></text>
      <g
         id="layer49-7"
         transform="translate(261.56461,13.893182)">
        <text
           xml:space="preserve"
           style="font-size:42.6667px;text-align:center;writing-mode:lr-tb;direction:ltr;text-anchor:middle;fill:#000000;stroke-width:3;stroke-linecap:round;stroke-linejoin:bevel"
           x="67.306305"
           y="136.87892"
           id="text38-5"><tspan
             sodipodi:role="line"
             id="tspan38-9"
             x="67.306305"
             y="136.87892"
             style="fill:#0000ff">g</tspan><tspan
             sodipodi:role="line"
             x="67.306305"
             y="190.2123"
             id="tspan39-6"
             style="fill:#999999">/g/</tspan></text>
      </g>
      <text
         xml:space="preserve"
         style="font-size:42.6667px;text-align:center;writing-mode:lr-tb;direction:ltr;text-anchor:middle;fill:#000000;stroke-width:3;stroke-linecap:round;stroke-linejoin:bevel"
         x="423.08453"
         y="148.60423"
         id="text38-7"><tspan
           sodipodi:role="line"
           id="tspan38-41"
           x="423.08453"
           y="148.60423"
           style="fill:#0000ff">ps</tspan><tspan
           sodipodi:role="line"
           x="423.08453"
           y="201.93761"
           id="tspan39-859"
           style="fill:#999999">/ps/</tspan></text>
      <g
         id="layer49-8"
         transform="translate(463.54935,20.999999)">
        <text
           xml:space="preserve"
           style="font-size:42.6667px;text-align:center;writing-mode:lr-tb;direction:ltr;text-anchor:middle;fill:#000000;stroke-width:3;stroke-linecap:round;stroke-linejoin:bevel"
           x="58.443638"
           y="131.95522"
           id="text38-8"><tspan
             sodipodi:role="line"
             id="tspan38-31"
             x="58.443638"
             y="131.95522"
             style="fill:#0000ff">ts</tspan><tspan
             sodipodi:role="line"
             x="58.443638"
             y="185.28859"
             id="tspan39-89"
             style="fill:#999999">/ts/</tspan></text>
      </g>
      <text
         xml:space="preserve"
         style="font-size:42.6667px;text-align:center;writing-mode:lr-tb;direction:ltr;text-anchor:middle;fill:#000000;stroke-width:3;stroke-linecap:round;stroke-linejoin:bevel"
         x="614.16083"
         y="153.75684"
         id="text38-3"><tspan
           sodipodi:role="line"
           id="tspan38-86"
           x="614.16083"
           y="153.75684"
           style="fill:#0000ff">ch</tspan><tspan
           sodipodi:role="line"
           x="614.16083"
           y="207.09021"
           id="tspan39-0"
           style="fill:#999999">/t/</tspan></text>
      <text
         xml:space="preserve"
         style="font-size:42.6667px;text-align:center;writing-mode:lr-tb;direction:ltr;text-anchor:middle;fill:#000000;stroke-width:3;stroke-linecap:round;stroke-linejoin:bevel"
         x="708.95923"
         y="151.08643"
         id="text38-3-7"><tspan
           sodipodi:role="line"
           id="tspan38-86-7"
           x="708.95923"
           y="151.08643"
           style="fill:#0000ff">j</tspan><tspan
           sodipodi:role="line"
           x="708.95923"
           y="204.4198"
           id="tspan39-0-6"
           style="fill:#999999">/d/</tspan></text>
      <text
         xml:space="preserve"
         style="font-size:42.6667px;text-align:center;writing-mode:lr-tb;direction:ltr;text-anchor:middle;fill:#000000;stroke-width:3;stroke-linecap:round;stroke-linejoin:bevel"
         x="808.62213"
         y="155.06339"
         id="text38-3-7-0"><tspan
           sodipodi:role="line"
           id="tspan38-86-7-9"
           x="808.62213"
           y="155.06339"
           style="fill:#0000ff">ks</tspan><tspan
           sodipodi:role="line"
           x="808.62213"
           y="208.39676"
           id="tspan39-0-6-2"
           style="fill:#999999">/ks/</tspan></text>
    </g>
    <text
       xml:space="preserve"
       style="font-size:42.6667px;text-align:center;writing-mode:lr-tb;direction:ltr;text-anchor:middle;fill:#000000;stroke-width:3;stroke-linecap:round;stroke-linejoin:bevel"
       x="808.49738"
       y="774.40759"
       id="text38-94-5-6-1-4-8-2-1-9-8-0-6-9-1-4-0-1-5-8-2-6-3-4-4-8"><tspan
         sodipodi:role="line"
         id="tspan38-6-4-8-1-6-4-9-1-1-0-4-9-9-3-9-4-0-5-0-5-0-5-6-1-8"
         x="808.49738"
         y="774.40759"
         style="fill:#0000ff">u</tspan><tspan
         sodipodi:role="line"
         x="808.49738"
         y="827.74097"
         style="fill:#999999"
         id="tspan41-8-6-2-1-8-4-2-4-4-5-1-9-2-8">/u/</tspan></text>
    <text
       xml:space="preserve"
       style="font-size:42.6667px;text-align:center;writing-mode:lr-tb;direction:ltr;text-anchor:middle;fill:#000000;stroke-width:3;stroke-linecap:round;stroke-linejoin:bevel"
       x="900.34479"
       y="777.71277"
       id="text38-94-5-6-1-4-8-2-1-9-8-0-6-9-1-4-0-1-5-8-2-6-3-4-4-3"><tspan
         sodipodi:role="line"
         id="tspan38-6-4-8-1-6-4-9-1-1-0-4-9-9-3-9-4-0-5-0-5-0-5-6-1-3"
         x="900.34479"
         y="777.71277"
         style="fill:#0000ff">au</tspan><tspan
         sodipodi:role="line"
         x="900.34479"
         y="831.04614"
         style="fill:#999999"
         id="tspan41-8-6-2-1-8-4-2-4-4-5-1-9-2-80">/a/</tspan></text>
    <text
       xml:space="preserve"
       style="font-size:42.6667px;text-align:center;writing-mode:lr-tb;direction:ltr;text-anchor:middle;fill:#000000;stroke-width:3;stroke-linecap:round;stroke-linejoin:bevel"
       x="51.115223"
       y="972.58258"
       id="text38-94-5-6-1-4-8-2-1-9-8-0-6-9-1-4-0-1-8"><tspan
         sodipodi:role="line"
         id="tspan38-6-4-8-1-6-4-9-1-1-0-4-9-9-3-9-4-0-6"
         x="51.115223"
         y="972.58258"
         style="fill:#0000ff">a</tspan><tspan
         sodipodi:role="line"
         x="51.115223"
         y="1025.9159"
         style="fill:#999999"
         id="tspan41-8-6-2-1-8-4-24">/a/</tspan></text>
    <text
       xml:space="preserve"
       style="font-size:42.6667px;text-align:center;writing-mode:lr-tb;direction:ltr;text-anchor:middle;fill:#000000;stroke-width:3;stroke-linecap:round;stroke-linejoin:bevel"
       x="140.52074"
       y="971.7962"
       id="text38-94-5-6-1-4-8-2-1-9-8-0-6-9-1-4-0-1-5-7"><tspan
         sodipodi:role="line"
         id="tspan38-6-4-8-1-6-4-9-1-1-0-4-9-9-3-9-4-0-5-9"
         x="140.52074"
         y="971.7962"
         style="fill:#0000ff">ai</tspan><tspan
         sodipodi:role="line"
         x="140.52074"
         y="1025.1295"
         style="fill:#999999"
         id="tspan41-8-6-2-1-8-4-2-3">/ai/</tspan></text>
    <text
       xml:space="preserve"
       style="font-size:42.6667px;text-align:center;writing-mode:lr-tb;direction:ltr;text-anchor:middle;fill:#000000;stroke-width:3;stroke-linecap:round;stroke-linejoin:bevel"
       x="245.49361"
       y="971.22552"
       id="text38-94-5-6-1-4-8-2-1-9-8-0-6-9-1-4-0-1-5-8-9"><tspan
         sodipodi:role="line"
         id="tspan38-6-4-8-1-6-4-9-1-1-0-4-9-9-3-9-4-0-5-0-2"
         x="245.49361"
         y="971.22552"
         style="fill:#0000ff">e</tspan><tspan
         sodipodi:role="line"
         x="245.49361"
         y="1024.5588"
         style="fill:#999999"
         id="tspan41-8-6-2-1-8-4-2-4-8">//</tspan></text>
    <text
       xml:space="preserve"
       style="font-size:42.6667px;text-align:center;writing-mode:lr-tb;direction:ltr;text-anchor:middle;fill:#000000;stroke-width:3;stroke-linecap:round;stroke-linejoin:bevel"
       x="335.99435"
       y="971.55206"
       id="text38-94-5-6-1-4-8-2-1-9-8-0-6-9-1-4-0-1-5-8-2-3"><tspan
         sodipodi:role="line"
         id="tspan38-6-4-8-1-6-4-9-1-1-0-4-9-9-3-9-4-0-5-0-5-01"
         x="335.99435"
         y="971.55206"
         style="fill:#0000ff">ei</tspan><tspan
         sodipodi:role="line"
         x="335.99435"
         y="1024.8854"
         style="fill:#999999"
         id="tspan41-8-6-2-1-8-4-2-4-4-7">/i/</tspan></text>
    <text
       xml:space="preserve"
       style="font-size:42.6667px;text-align:center;writing-mode:lr-tb;direction:ltr;text-anchor:middle;fill:#000000;stroke-width:3;stroke-linecap:round;stroke-linejoin:bevel"
       x="433.013"
       y="971.42389"
       id="text38-94-5-6-1-4-8-2-1-9-8-0-6-9-1-4-0-1-5-8-2-6-8"><tspan
         sodipodi:role="line"
         id="tspan38-6-4-8-1-6-4-9-1-1-0-4-9-9-3-9-4-0-5-0-5-0-9"
         x="433.013"
         y="971.42389"
         style="fill:#0000ff">i</tspan><tspan
         sodipodi:role="line"
         x="433.013"
         y="1024.7572"
         style="fill:#999999"
         id="tspan41-8-6-2-1-8-4-2-4-4-5-15">/i/</tspan></text>
    <text
       xml:space="preserve"
       style="font-size:42.6667px;text-align:center;writing-mode:lr-tb;direction:ltr;text-anchor:middle;fill:#000000;stroke-width:3;stroke-linecap:round;stroke-linejoin:bevel"
       x="524.28339"
       y="971.84406"
       id="text38-94-5-6-1-4-8-2-1-9-8-0-6-9-1-4-0-1-5-8-2-6-3-49"><tspan
         sodipodi:role="line"
         id="tspan38-6-4-8-1-6-4-9-1-1-0-4-9-9-3-9-4-0-5-0-5-0-5-2"
         x="524.28339"
         y="971.84406"
         style="fill:#0000ff">oi</tspan><tspan
         sodipodi:role="line"
         x="524.28339"
         y="1025.1774"
         style="fill:#999999"
         id="tspan41-8-6-2-1-8-4-2-4-4-5-1-5">/oi/</tspan></text>
    <text
       xml:space="preserve"
       style="font-size:42.6667px;text-align:center;writing-mode:lr-tb;direction:ltr;text-anchor:middle;fill:#000000;stroke-width:3;stroke-linecap:round;stroke-linejoin:bevel"
       x="618.41174"
       y="970.2713"
       id="text38-94-5-6-1-4-8-2-1-9-8-0-6-9-1-4-0-1-5-8-2-6-3-4-7"><tspan
         sodipodi:role="line"
         id="tspan38-6-4-8-1-6-4-9-1-1-0-4-9-9-3-9-4-0-5-0-5-0-5-6-4"
         x="618.41174"
         y="970.2713"
         style="fill:#0000ff">o</tspan><tspan
         sodipodi:role="line"
         x="618.41174"
         y="1023.6047"
         style="fill:#999999"
         id="tspan41-8-6-2-1-8-4-2-4-4-5-1-9-9">//</tspan></text>
    <text
       xml:space="preserve"
       style="font-size:42.6667px;text-align:center;writing-mode:lr-tb;direction:ltr;text-anchor:middle;fill:#000000;stroke-width:3;stroke-linecap:round;stroke-linejoin:bevel"
       x="712.33441"
       y="976.62836"
       id="text38-94-5-6-1-4-8-2-1-9-8-0-6-9-1-4-0-1-5-8-2-6-3-4-4-9"><tspan
         sodipodi:role="line"
         id="tspan38-6-4-8-1-6-4-9-1-1-0-4-9-9-3-9-4-0-5-0-5-0-5-6-1-4"
         x="712.33441"
         y="976.62836"
         style="fill:#0000ff">ou</tspan><tspan
         sodipodi:role="line"
         x="712.33441"
         y="1029.9617"
         style="fill:#999999"
         id="tspan41-8-6-2-1-8-4-2-4-4-5-1-9-2-5">/o/</tspan></text>
    <text
       xml:space="preserve"
       style="font-size:42.6667px;text-align:center;writing-mode:lr-tb;direction:ltr;text-anchor:middle;fill:#000000;stroke-width:3;stroke-linecap:round;stroke-linejoin:bevel"
       x="810.57019"
       y="976.33844"
       id="text38-94-5-6-1-4-8-2-1-9-8-0-6-9-1-4-0-1-5-8-2-6-3-4-4-8-9"><tspan
         sodipodi:role="line"
         id="tspan38-6-4-8-1-6-4-9-1-1-0-4-9-9-3-9-4-0-5-0-5-0-5-6-1-8-3"
         x="810.57019"
         y="976.33844"
         style="fill:#0000ff">u</tspan><tspan
         sodipodi:role="line"
         x="810.57019"
         y="1029.6718"
         style="fill:#999999"
         id="tspan41-8-6-2-1-8-4-2-4-4-5-1-9-2-8-5">/u/</tspan></text>
    <text
       xml:space="preserve"
       style="font-size:42.6667px;text-align:center;writing-mode:lr-tb;direction:ltr;text-anchor:middle;fill:#000000;stroke-width:3;stroke-linecap:round;stroke-linejoin:bevel"
       x="902.4176"
       y="979.64362"
       id="text38-94-5-6-1-4-8-2-1-9-8-0-6-9-1-4-0-1-5-8-2-6-3-4-4-3-7"><tspan
         sodipodi:role="line"
         id="tspan38-6-4-8-1-6-4-9-1-1-0-4-9-9-3-9-4-0-5-0-5-0-5-6-1-3-0"
         x="902.4176"
         y="979.64362"
         style="fill:#0000ff">au</tspan><tspan
         sodipodi:role="line"
         x="902.4176"
         y="1032.9769"
         style="fill:#999999"
         id="tspan41-8-6-2-1-8-4-2-4-4-5-1-9-2-80-8">/a/</tspan></text>
  </g>
</svg>
