<?xml version="1.0" encoding="UTF-8" standalone="no"?>
<!-- Created with Inkscape (http://www.inkscape.org/) -->

<svg
   height="1000"
   width="1000"
   sodipodi:docname="pad1.svg"
   version="1.1"
   id="svg1"
   inkscape:version="1.4.2 (f4327f4, 2025-05-13)"
   xmlns:inkscape="http://www.inkscape.org/namespaces/inkscape"
   xmlns:sodipodi="http://sodipodi.sourceforge.net/DTD/sodipodi-0.dtd"
   xmlns="http://www.w3.org/2000/svg"
   xmlns:svg="http://www.w3.org/2000/svg"
   xmlns:rdf="http://www.w3.org/1999/02/22-rdf-syntax-ns#"
   xmlns:cc="http://creativecommons.org/ns#"
   xmlns:dc="http://purl.org/dc/elements/1.1/">
  <sodipodi:namedview
     id="base"
     pagecolor="#ffffff"
     bordercolor="#000000"
     borderopacity="0.3"
     inkscape:pageopacity="0.0"
     inkscape:pageshadow="2"
     inkscape:zoom="1"
     inkscape:cx="338.5"
     inkscape:cy="347.5"
     inkscape:document-units="px"
     inkscape:current-layer="layer27"
     showgrid="true"
     showguides="true"
     inkscape:window-width="1920"
     inkscape:window-height="1009"
     inkscape:window-x="-8"
     inkscape:window-y="-8"
     inkscape:window-maximized="1"
     showborder="true"
     inkscape:showpageshadow="false"
     inkscape:pagecheckerboard="0"
     inkscape:deskcolor="#d1d1d1">
    <sodipodi:guide
       id="guide_baseline"
       inkscape:label="baseline"
       position="0,253"
       orientation="0,1"
       inkscape:locked="false" />
    <sodipodi:guide
       id="guide_ascender"
       inkscape:label="ascender"
       position="0,945"
       orientation="0,1"
       inkscape:locked="false" />
    <sodipodi:guide
       id="guide_caps"
       inkscape:label="caps"
       position="0,896"
       orientation="0,1"
       inkscape:locked="false" />
    <sodipodi:guide
       id="guide_xheight"
       inkscape:label="xheight"
       position="0,729"
       orientation="0,1"
       inkscape:locked="false" />
    <sodipodi:guide
       id="guide_descender"
       inkscape:label="descender"
       position="0,28"
       orientation="0,1"
       inkscape:locked="false" />
    <inkscape:grid
       id="grid1"
       units="px"
       originx="0"
       originy="0"
       spacingx="1"
       spacingy="1"
       empcolor="#0099e5"
       empopacity="0.30196078"
       color="#0099e5"
       opacity="0.14901961"
       empspacing="5"
       enabled="true"
       visible="true" />
  </sodipodi:namedview>
  <defs
     id="defs4" />
  <metadata
     id="metadata7">
    <rdf:RDF>
      <cc:Work
         rdf:about="">
        <dc:format>image/svg+xml</dc:format>
        <dc:type
           rdf:resource="http://purl.org/dc/dcmitype/StillImage" />
      </cc:Work>
    </rdf:RDF>
  </metadata>
  <g
     id="layer1"
     inkscape:groupmode="layer"
     inkscape:label="Layer 1"
     style="display:none">
    <path
       style="fill:#000000;fill-opacity:1;stroke:#000000;stroke-width:3.77953"
       d="m 304.21277,178.31223 c 0,0 182.53723,55.18777 230.78723,-8.56223 0,0 -8.25,43.5 -25.25,50.25 -17,6.75 -128.5,18.75 -195,-0.25 -13.07105,-2.7896 -22.09425,5.99948 -27,20 0,0 163.25,40 241.75,0.25 v 73 C 526.13688,349.99427 338.81599,273.89854 300,356 282.96386,392.03393 228.60509,565.10726 311.9445,664.7034 350.20627,710.42876 414.14367,754.06012 530,738 544.01117,734.28275 563.59883,697.48847 545.17933,709.93521 488.45489,748.266 248.25355,599.40709 312.32547,360.42345 c 6.89597,-25.72145 33.5274,-38.73763 83.25779,-28.95494 67.88295,13.35355 114.16473,81.76562 158.78846,48.95494 68.32123,-50.23485 5.92316,-199.9262 0.94638,-254.40337 -2.47487,-17.11936 -14.72775,-7.88346 -19.65953,2.15036 -3.13749,8.57727 -3.8121,19.5329 -12.12132,25.79937 -16.62856,14.41284 -39.64699,17.05762 -60.78237,18.74588 C 418.04214,175.01846 373.30732,168.99545 329.5,160.5 c -13.81484,-3.39159 -18.90452,10.31703 -25.03723,17.56223"
       id="path1"
       sodipodi:nodetypes="ccsccccsscsssacccccc" />
  </g>
  <g
     inkscape:groupmode="layer"
     id="layer2"
     inkscape:label="Layer 2"
     style="display:none">
    <path
       style="fill:#000000;stroke-width:3;stroke-linecap:round;stroke-linejoin:bevel"
       d="m 280.36601,365.95994 c 0,0 -1.29588,10.44328 9.26174,16.46531 0,0 3.20159,3.96388 14.52149,3.92576 11.3199,-0.0381 23.1734,-3.65896 29.72903,-7.66094 0,0 5.0175,-1.39329 20.32554,-10.44874 15.30804,-9.05546 38.70131,-27.59759 38.70131,-27.59759 0,0 20.86039,-16.76181 37.17325,-33.53203 16.31285,-16.77023 32.32079,-33.54045 32.32079,-33.54045 0,0 11.19653,-12.57442 16.8497,-18.56285 0,0 3.42703,6.8237 2.35983,13.07441 -1.0672,6.25072 -6.86055,15.39812 -12.80635,22.41112 0,0 2.28685,9.45231 1.67702,14.02601 -0.60983,4.57369 -1.52457,19.05707 -5.03107,30.33885 -3.5065,11.28179 -9.29985,21.19147 -9.90967,22.56358 36.06657,13.45865 20.62092,57.18467 5.9458,79.42987 -10.24618,15.71352 -39.33379,40.24854 -39.33379,40.24854 -74.70934,64.86344 -74.41783,146.93133 -74.39881,147.4255 1.42722,37.07379 10.71622,78.68868 44.21241,102.14591 0,0 14.78828,7.77528 33.38798,2.4393 0,0 -9.4523,5.03107 -32.16833,7.31792 -22.71603,2.28685 -40.40099,-21.95375 -44.66978,-26.6799 -23.51984,-26.03988 -23.14351,-82.0009 -15.0932,-122.27018 8.70027,-43.5205 34.8311,-83.22839 65.86124,-115.71453 22.05047,-21.42069 53.20334,-39.89885 60.67772,-72.11196 1.89371,-12.068 -0.47987,-30.25207 -8.38512,-35.67484 -18.51702,29.52914 -52.08083,74.07809 -96.50501,95.59027 -12.34898,5.64089 -18.81967,7.50395 -28.66183,7.16546 -5.23273,-0.17996 -14.94075,-4.84754 -14.94075,-4.84754 21.78927,6.62161 63.40007,-29.59589 79.42988,-44.09102 17.38005,-16.1604 34.15027,-32.01588 44.66977,-48.48119 10.51951,-16.46531 17.07514,-25.15534 21.95375,-41.16328 4.87861,-16.00794 5.33598,-30.49131 5.33598,-30.49131 0,0 -20.58164,21.49638 -21.34392,22.86849 -0.76228,1.37211 -27.89955,26.07007 -29.57657,27.59464 -1.67703,1.52456 -25.3078,20.58163 -28.50938,22.25866 -3.20159,1.67702 -31.86343,20.42918 -37.80923,21.80129 0,0 -14.17846,7.31791 -31.71097,9.14739 -17.53251,1.82948 -26.6799,-7.77529 -29.72903,-12.6539 -3.04913,-4.87861 -3.81142,-7.013 -4.87861,-12.50143 -1.0672,-5.48844 1.06719,-10.2146 1.06719,-10.2146 z"
       id="path3"
       inkscape:label="path3"
       sodipodi:nodetypes="ccscscsccscsscacaccssasacsacssscssscsssc" />
  </g>
  <g
     inkscape:groupmode="layer"
     id="layer3"
     inkscape:label="Layer 3"
     style="display:none">
    <path
       style="fill:#000000;fill-opacity:1;stroke:#000000;stroke-width:3.77953"
       d="m 478.5,254.75 c 0,0 -90.91512,100.28702 -144.75,124 -42,18.5 -53.23483,-11.4545 -53.23483,-11.4545 0,0 -8.76517,28.4545 27.23483,34.4545 36,6 137.19694,-71.53113 164.77411,-116.25564 0,0 3.71231,31.46626 -21.03643,57.62921 -24.74874,26.16295 -100.05561,92.10065 -150.9673,87.50446 0,0 4.47289,6.31194 14.97289,6.06194 10.5,-0.25 75.75673,4.06003 136.25673,-72.43997 18.91365,72.39182 -30.91219,98.01695 -103.6105,187.43918 -64.41234,79.2301 -75.58437,191.48005 111.47991,191.48005 7.38806,-0.26791 7.92357,-1.06579 8.66206,-3.00521 -16.43924,-16.54385 -208.84555,-71.76561 -57.66196,-231.80284 17.3135,-18.32742 49.41735,-45.80868 57.66196,-66.86118 7.63609,-19.49864 14.87348,-56.28055 4.96853,-89.5 0,0 24.75,-25.5 5.25,-97.25 z"
       id="path2"
       sodipodi:nodetypes="cscscscscsccsscc" />
  </g>
  <g
     inkscape:groupmode="layer"
     id="layer4"
     inkscape:label="Layer 4"
     style="display:none">
    <path
       style="display:inline;fill:#000000;fill-opacity:1;stroke:#000000;stroke-width:3.77953"
       d="m 571.29163,361.78438 c -10.76722,66 61.72028,430.6589 -71.01359,431.33281 -52.00067,8.0001 -71.9605,-85.02768 -28.8146,-159.9829 0.0335,-0.77257 -13.86485,-16.80473 -17.11663,-11.67815 -2.9651,4.67462 -72.85931,121.61821 -49.83372,179.17562 8.04979,20.12218 15.03397,22.5047 55.81343,20.41615 126.98587,-6.50367 206.36256,-151.75303 159.1278,-457.00411 -3.26302,-40.64914 -6.05337,-43.30224 -7.00888,-148.00144 -9.52356,51.32411 -12.64738,123.52498 -41.15381,145.74202 z"
       id="path4"
       sodipodi:nodetypes="cccsssccc" />
    <path
       style="display:inline;fill:#000000;fill-opacity:1;stroke:#000000;stroke-width:3.77953"
       d="m 588.99023,149.19565 c 0,0 -93.91512,95.28702 -147.75,119 -42,18.5 -50.23483,-10.9545 -50.23483,-10.9545 0,0 -8.76517,32.9545 27.23483,38.9545 36,6 130.69694,-62.53113 158.27411,-107.25564 2.07986,40.65587 -81.25977,173.20969 -166.84472,124.24826 -7.86389,25.77836 85.78515,67.20082 166.40272,-59.30328 7.20194,72.61568 40.34293,19.76823 34.50051,-33.14303 -1.76428,-15.97798 -4.00156,-28.94347 -7.27627,-40.79764 -3.93055,-14.22823 -7.99553,-25.94447 -14.30635,-30.74867 z"
       id="path2-8"
       sodipodi:nodetypes="cscscccssc" />
    <path
       style="display:inline;fill:#000000;fill-opacity:1;stroke:#000000;stroke-width:3.77953"
       d="m 575.42807,257.2153 c 1.92747,2.29159 0.21607,58.6173 -3.8472,97.5918 -1.53942,14.76602 -2.0298,36.93367 2.08669,30.28133 45.10326,-72.88795 53.07999,-199.31007 16.42083,-234.52777 z"
       id="path5"
       sodipodi:nodetypes="csscc" />
    <path
       style="display:none;fill:#000000;fill-opacity:1;stroke:#000000;stroke-width:3.77953"
       d="m 573.4636,260.9224 c -2.08744,-1.04372 7.24333,181.74778 -79.27014,150.05958 -1.68678,-0.61783 -3.58467,-1.58365 -5.4782,-1.51629 -4.05716,0.14433 -9.44467,2.73813 -11.47731,4.07474 -78.04986,51.32339 -203.93618,356.82931 111.07489,331.04301 0,0 6.65562,-0.85767 -1.95193,-24.98141 -8.60755,-24.12374 -14.15579,-37.55352 -39.51209,-29.25022 -128.29069,42.0107 -134.41032,-133.56662 -104.70927,-215.54025 10.98906,-30.32934 18.92945,-40.00831 39.75341,-39.19094 2.83228,0.11117 5.42158,-4.95467 8.84801,-5.40059 3.57501,-0.46525 6.34154,4.37268 10.36636,3.08428 27.03578,-8.65452 107.81232,-29.02769 110.77135,-176.77398 z"
       id="path7"
       sodipodi:nodetypes="csasczsssascc" />
  </g>
  <g
     inkscape:groupmode="layer"
     id="layer20"
     inkscape:label="Layer 7"
     style="display:none">
    <path
       id="path10"
       style="display:inline;fill:#000000;fill-opacity:1;stroke:#000000;stroke-width:3.77953"
       d="m 588.99023,149.19531 c 0,0 -93.91512,95.28702 -147.75,119 -42,18.5 -50.23437,-10.95508 -50.23437,-10.95508 0,0 -8.76563,32.95508 27.23437,38.95508 36,6 130.69627,-62.53135 158.27344,-107.25586 2.07986,40.65587 -81.2588,173.20948 -166.84375,124.24805 -7.85616,25.75303 85.60024,67.12058 166.16406,-58.92969 l -0.40625,2.95703 c 1.78048,1.869 -10.39139,63.5775 -9.59765,95.5918 -1.2623,116.07943 84.11428,398.29669 -65.55274,440.31055 -46.02063,7.08009 -66.94681,-64.96785 -41.24414,-133.58789 3.56591,32.5337 16.26333,74.9799 53.41211,57.28711 l -7.21679,-6.17383 c 0,0 -26.9939,-37.11673 -28.63868,-83.43946 -0.77288,-21.76705 -16.78767,-13.122 -22.04296,-6.01367 -0.0369,0.0438 -0.0726,0.0906 -0.10743,0.13867 -0.42783,0.5929 -0.80532,1.17881 -1.06445,1.72852 -8.96317,14.9952 -70.69789,122.98904 -48.86133,177.57422 8.04979,20.12218 15.03304,22.50652 55.8125,20.41797 126.98587,-6.50367 206.36367,-151.75478 159.12891,-457.00586 -15.84671,-52.88898 15.2654,-150.30349 -26.01953,-209.86524 -1.35803,-2.06552 -2.82774,-3.75102 -4.44532,-4.98242 z" />
  </g>
  <g
     inkscape:groupmode="layer"
     id="layer18"
     inkscape:label="Layer 8">
    <path
       id="path9"
       style="display:inline;fill:#000000;stroke-width:3.77953"
       d="M 588.5 147 C 588.5 147 516 223 454.5 258.5 C 393 294 391.5 251 391.5 251 C 370.29967 314.60098 459.26372 340.26864 573.46289 197.2832 C 599.62584 437.69951 483.25 454.25 459.5 458.75 C 435.75 463.25 439.41938 480.47787 447.5 486.5 C 474.90089 506.92066 518.05084 469.39173 538.82812 441.90234 C 539.0834 441.73007 539.33767 441.55833 539.5918 441.38867 C 539.64241 441.13838 539.70295 440.88928 539.77148 440.64062 C 541.7918 437.90954 543.8018 435.08087 545.79883 432.16406 C 558.48171 421.56124 586.68076 417.15976 599.90039 435.35547 C 622.29374 466.17801 580.33906 571.56825 572.18945 603.54102 C 562.56447 637.41143 538.83253 691.78174 507.70703 709.63867 C 457.43314 736.46755 396.16798 694.83541 392.67578 713.80664 C 391.05447 722.61435 403.09512 744.58398 415.95898 744.58398 C 537.64813 738.23409 629.01671 653.88762 633.4668 529.62305 C 635.35108 418.15525 602.33151 408.91992 554.61719 418.76562 C 554.53121 418.83833 554.44543 418.9116 554.35938 418.98438 C 606.5324 334.43749 644.55239 194.14059 588.5 147 z " />
  </g>
  <g
     inkscape:groupmode="layer"
     id="layer27"
     inkscape:label="Layer 9">
    <path
       style="fill:#000000;fill-opacity:1;stroke:none;stroke-width:3.77953;stroke-opacity:1"
       d="m 702.06849,167.26775 c 0,0 5.17395,36.00208 56.48231,8.62325 51.30836,-27.37883 131.07345,-101.10765 145.08624,-120.29439 0.48294,-0.0201 11.75803,-17.08232 20.91139,0 17.63752,32.91577 53.76326,449.01099 -25.00744,355.70921 -158.39002,-187.60873 -235.4546,-71.2118 -190.15216,49.31815 9.52954,25.35393 13.75573,82.8335 35.97283,104.19878 49.10414,26.60202 62.90961,19.58111 73.97947,13.77341 4.71466,0.31802 9.01964,1.76556 11.13242,0.36933 6.89252,0.88835 15.10135,0.43972 26.70591,3.59138 -194.29013,219.88765 -339.66631,-431.90088 38.91223,-243.68638 11.42334,-59.38109 14.88043,-179.87356 -3.43799,-232.39116 0,0 -68.29269,82.92683 -138.71952,105.79268 -70.42682,22.86586 -51.86569,-45.00426 -51.86569,-45.00426 z"
       id="path16"
       sodipodi:nodetypes="cscsscccccccsc" />
    <path
       style="fill:#000000;fill-opacity:1;stroke:none;stroke-width:3.77953;stroke-opacity:1"
       d="m 819.34474,578.59694 c 0,0 46.56556,5.17395 46.56556,-56.05115 0,0 -1.29348,-15.30628 8.94663,0 0,0 -5.37397,145.82379 56.2114,152.83598 0,0 -71.03658,32.31707 -68.59756,-102.13415 0,0 -10.36585,28.35366 -33.84146,19.5122 z"
       id="path17" />
  </g>
  <g
     inkscape:groupmode="layer"
     id="layer12"
     inkscape:label="Layer 6"
     style="display:none">
    <path
       id="path8"
       style="display:inline;fill:#000000;fill-opacity:1;stroke:#000000;stroke-width:3.77953"
       d="m 588.99023,149.19531 c 0,0 -93.91512,95.28702 -147.75,119 -42,18.5 -50.23437,-10.95508 -50.23437,-10.95508 0,0 -8.76563,32.95508 27.23437,38.95508 36,6 130.69627,-62.53135 158.27344,-107.25586 2.07986,40.65587 -81.2588,173.20948 -166.84375,124.24805 -7.85616,25.75303 85.60024,67.12058 166.16406,-58.92969 l -0.40625,2.95703 c 0.2427,0.25477 0.48784,1.43755 0.69922,3.40235 L 574.17,260.038 c -2.08744,-1.04373 3.89479,193.22386 -79.26953,150.06054 -7.59684,-4.35179 -13.41044,-2.49046 -19.78351,2.73537 -71.33235,57.15702 -201.81553,395.53637 113.19554,369.75007 0,0 6.65638,-0.85868 -1.95117,-24.98242 -8.60755,-24.12374 -14.15542,-37.5533 -39.51172,-29.25 -128.29069,42.0107 -134.41199,-171.56543 -104.71094,-253.53906 6.40676,-17.68239 19.92094,-41.13773 46.80683,-43.00785 47.01364,-3.2702 117.92767,-31.28353 122.76934,-169.28512 4.39443,-45.63909 -1.66937,-88.05092 -18.23437,-108.27539 -1.37023,-2.09604 -2.85524,-3.80416 -4.49024,-5.04883 z"
       sodipodi:nodetypes="cscsccccccsscsssaccc" />
  </g>
  <g
     inkscape:groupmode="layer"
     id="layer5"
     inkscape:label="Layer 5"
     style="display:none">
    <path
       id="path6"
       style="display:inline;fill:#000000;fill-opacity:1;stroke:#000000;stroke-width:3.77953"
       d="m 588.99023,149.19531 c 0,0 -93.91512,95.28702 -147.75,119 -42,18.5 -50.23437,-10.95508 -50.23437,-10.95508 0,0 -8.76563,32.95508 27.23437,38.95508 36,6 130.69627,-62.53135 158.27344,-107.25586 2.07986,40.65587 -84.0088,177.95948 -166.84375,124.24805 -7.85616,25.75303 85.60024,67.12058 166.16406,-58.92969 l 0.71875,2.64453 c 2.76185,2.34356 26.81505,178.14349 -53.29296,161.70508 -26.42929,13.78018 -39.64138,58.29873 4.41796,41.71875 147.59781,-65.93824 62.69166,264.22922 -18.71875,290.09766 -12.37786,3.93311 -36.16778,6.0619 -44.19726,-20.69922 0,0 -7.30477,-5.62875 -19.47266,-13.41797 -3.375,3.875 7.21094,118.125 98.21094,77.625 90.69624,-40.36481 138.52424,-371.73625 -7.0293,-355.28516 67.41683,-9.6833 100.84131,-229.81023 57.09571,-284.26757 -1.39422,-2.15688 -2.90671,-3.91269 -4.57618,-5.1836 z"
       sodipodi:nodetypes="cscsccccccsccsccc" />
  </g>
</svg>
