<?xml version="1.0" encoding="UTF-8" standalone="no"?>
<!-- Created with Inkscape (http://www.inkscape.org/) -->

<svg
   width="297mm"
   height="210mm"
   viewBox="0 0 1122.5197 793.70081"
   version="1.1"
   id="svg1"
   inkscape:version="1.4.3 (0d15f75042, 2025-12-25)"
   sodipodi:docname="preview.svg"
   xmlns:inkscape="http://www.inkscape.org/namespaces/inkscape"
   xmlns:sodipodi="http://sodipodi.sourceforge.net/DTD/sodipodi-0.dtd"
   xmlns="http://www.w3.org/2000/svg"
   xmlns:svg="http://www.w3.org/2000/svg">
  <sodipodi:namedview
     id="namedview1"
     pagecolor="#ffffff"
     bordercolor="#000000"
     borderopacity="0.25"
     inkscape:showpageshadow="2"
     inkscape:pageopacity="0.0"
     inkscape:pagecheckerboard="0"
     inkscape:deskcolor="#d1d1d1"
     inkscape:document-units="mm"
     inkscape:zoom="1.015496"
     inkscape:cx="560.80968"
     inkscape:cy="396.85039"
     inkscape:window-width="1920"
     inkscape:window-height="1048"
     inkscape:window-x="0"
     inkscape:window-y="0"
     inkscape:window-maximized="1"
     inkscape:current-layer="layer1" />
  <defs
     id="defs1" />
  <g
     inkscape:label="Layer 1"
     inkscape:groupmode="layer"
     id="layer1">
    <path
       d="m 207.09866,71.61135 c 0,0 -3.88818,22.51758 3.70557,46.88086 13.79932,44.2728 42.36177,-3.09064 55.06201,12.18164 11.27488,13.55825 13.64137,38.69573 5.84619,54.99756 -6.78637,14.19215 -20.11225,28.02212 -35.84667,29.54443 -3.66095,0.3542 -7.89819,-4.51722 -9.66993,-7.3374 -0.31032,-2.32383 -0.92453,-4.28827 -1.40674,-5.21826 -0.75462,-1.45535 -2.91064,-4.2583 -2.91064,-4.2583 1.50924,4.58163 1.29375,11.85831 -0.86231,16.43994 -2.15606,4.58163 -3.18043,5.44416 -6.14502,6.73779 -2.96458,1.29364 -4.68918,1.132 -6.14453,0.8086 -1.45534,-0.32342 -2.69531,-1.99463 -2.69531,-1.99463 0,0 0.86268,1.72499 2.96484,3.82714 2.10216,2.10216 5.28223,2.20997 5.28223,2.20997 0,0 4.68963,0.37741 7.81592,-3.3418 2.57717,-3.06594 3.61588,-5.91245 4.05225,-9.02198 1.68617,2.25703 5.00652,4.94016 10.55419,5.13721 6.39026,0.22698 12.31003,-1.31725 17.84326,-4.22705 5.53325,-2.90981 11.2306,-6.72498 15.52344,-12.4209 15.23882,-20.21951 7.94577,-42.98679 5.51026,-89.45751 -0.70713,-13.4924 -3.75412,-44.08112 -8.22656,-39.73292 -2.08132,2.0235 -4.75942,5.05577 -3.77881,8.61377 1.59714,5.79506 3.43934,13.1294 1.13184,24.67725 -3.07714,15.39942 -12.08766,23.1885 -23.18555,25.49659 -19.85807,4.12997 -26.64951,-24.91638 -34.41993,-60.542 z"
       style="display:inline;fill:#000000;stroke-width:0.75;stroke-linecap:round;stroke-linejoin:bevel"
       id="path1-26" />
    <path
       style="display:inline;fill:#000000;stroke-width:0.479203"
       d="m 95.424661,71.304845 c 0,0 -3.888,22.51755 3.70575,46.880835 13.799309,44.2728 42.361569,-3.09061 55.061809,12.18166 11.27488,13.55826 13.64141,38.6956 5.84623,54.99743 -8.57914,17.94133 -24.41847,32.66311 -48.74466,27.95411 -6.87617,-1.33107 -16.260699,-8.17469 -16.260699,-8.17469 0,0 11.534099,13.09757 29.993559,13.75325 6.39026,0.22699 12.31021,-1.31714 17.84345,-4.22694 5.53324,-2.90981 11.23036,-6.72514 15.5232,-12.42106 15.23882,-20.21951 7.94568,-42.98668 5.51017,-89.4574 -0.70713,-13.492385 -3.75377,-44.080935 -8.22621,-39.732735 -2.08132,2.0235 -4.75943,5.05572 -3.77883,8.61372 1.59715,5.79506 3.43913,13.12917 1.13162,24.677015 -3.07713,15.39941 -12.08738,23.18852 -23.18527,25.4966 -19.85806,4.12998 -26.64971,-24.91618 -34.420119,-60.541795 z"
       id="path59"
       sodipodi:nodetypes="csaascssssssssc" />
    <path
       d="m 450.40967,61.38806 c -3.73113,10.428067 -7.05521,16.955415 -12.70117,26.344727 -5.64595,9.389309 -15.79665,23.585093 -21.60205,29.408683 -5.80539,5.8236 -8.0287,1.28021 -10.33056,7.63819 -0.66506,1.83696 0.62516,5.99535 3.54785,4.89355 3.37391,-1.2719 5.63539,-3.88016 8.04785,-6.17432 7.43852,-6.83477 12.55515,-15.12032 18.00146,-23.14305 0,0 2.39583,-0.957634 3.60059,-0.731454 1.25248,0.23514 4.83912,1.438094 4.65918,7.500484 -0.3403,8.28142 -3.67199,15.80403 -6.65479,23.37158 -1.19033,2.98365 -2.22789,6.03142 -3.53711,8.96485 -1.34778,3.01983 -2.83587,6.16331 -4.43798,8.87256 -3.25105,5.49765 -6.27894,10.6623 -8.1294,16.51122 -1.30797,4.13424 -1.92369,8.51675 -2.01221,12.85206 -0.13563,6.64346 -0.0215,13.5695 2.27686,19.8042 1.45515,3.94729 3.6011,8.05313 7.04199,10.47362 3.66689,2.57948 8.60875,3.73148 13.13184,3.49219 1.53328,-0.0811 3.16922,-0.61018 4.30181,-1.64691 0.76193,-0.69744 1.03873,-1.80292 1.3589,-2.78499 0.37313,-1.14452 0.43841,-2.87682 0.63358,-3.55541 0,0 -0.1165,12.12257 2.81348,16.34619 1.59345,2.297 4.77574,2.6875 7.80761,3.06251 -2.80897,-1.90904 -3.56522,-5.35025 -4.75439,-8.31251 -1.40392,-3.49721 -2.16818,-7.12722 -2.73068,-10.97072 0,-3.26905 -1.17767,-20.07937 -1.87422,-20.77591 -0.55057,-0.55057 -1.43508,0.48456 -1.77481,1.07298 -0.79315,1.37379 -1.92784,2.36733 -1.29461,4.57945 1.55743,5.44069 2.81543,11.71291 0.33181,16.6937 -0.92231,1.84964 -2.96815,3.83008 -5.02546,3.63194 -3.70622,-0.35694 -5.98652,-4.81341 -7.63819,-8.15039 -3.73733,-7.55077 -4.8525,-16.72248 -4.1826,-24.92674 1.80928,-10.35223 4.22087,-21.55637 7.57129,-31.6499 3.00899,-9.72108 7.19819,-19.54575 8.20654,-29.36279 0.55512,-5.40438 1.49476,-13.99877 -4.18262,-15.871094 -1.63223,-0.53828 -2.48821,-0.45706 -5.18847,0.64063 0,0 2.0649,-3.01901 2.80615,-4.25391 4.60693,-7.674986 5.12126,-9.779116 6.98779,-14.955564 2.20718,-6.12115 4.27807,-12.515205 4.92481,-18.88965 z"
       style="display:inline;fill:#000000;stroke-width:0.968335;stroke-linecap:round;stroke-linejoin:bevel"
       id="path1-9"
       sodipodi:nodetypes="cssssccsccssssssaaacscacsssaaaccsscsscc" />
    <path
       d="m 555.36406,67.761497 c 0,0 -1.1636,12.13144 -3.49289,17.6625 -7.58873,18.019913 -15.75017,41.106683 -33.21453,48.348223 -5.17666,1.81521 -12.14141,4.78793 -10.51066,6.13928 3.30466,2.52567 6.36664,4.03195 10.23039,3.375 3.5875,-0.9 9.87824,-8.52215 14.05019,-13.5 3.87409,-4.62245 6.89282,-9.17606 10.0625,-15.0375 0,0 6.81838,6.41182 9.025,10.8 3.59094,7.14105 6.66706,15.75785 6.5625,24.075 -0.22982,18.28098 -3.19231,45.77388 -15.75,52.53724 -9.17989,4.94414 -17.20721,0.5326 -21.18544,-5.5926 -4.33854,-6.67997 -1.18267,-17.39205 3.82294,-23.58792 1.79914,-2.22694 5.20546,-3.74687 8,-3.125 2.9998,0.66755 4.92025,3.68411 6.35469,6.67967 0.53842,1.12437 0.66719,3.86721 0.66719,3.86721 0,0 0.98141,-2.19546 0.91875,-3.38909 -0.70222,-13.37695 -8.97358,-14.78853 -15.16035,-12.16784 -5.32072,2.25383 -8.26312,8.40572 -10.68043,13.6542 -7.43154,16.13543 4.26509,28.59975 8.10015,30.86137 5.82863,3.43728 13.5625,3.6 20.3,0 6.7375,-3.6 12.33992,-13.95495 15.925,-23.175 2.90316,-7.46631 4.07352,-16.24642 3.9375,-24.525 -0.19831,-12.07022 -1.18972,-24.92056 -6.9125,-35.54974 -2.90322,-5.39229 -5.90625,-9.7625 -13.125,-12.85625 0,0 3.15141,-5.13462 7.54431,-15.396513 4.3929,-10.26189 5.44472,-10.71669 5.81595,-15.0919 0.37124,-4.37522 -1.28526,-15.00534 -1.28526,-15.00534 z"
       style="display:inline;fill:#000000;stroke-width:1.19059;stroke-linecap:round;stroke-linejoin:bevel"
       id="path1-2"
       sodipodi:nodetypes="cacccacsasaaascssaassaacssc" />
    <path
       d="m 370.26459,66.338297 c -3.73114,10.42806 -7.0552,16.95518 -12.70115,26.34449 -5.64596,9.389323 -15.79669,23.585283 -21.60208,29.408883 -5.8054,5.82359 -8.02861,1.28009 -10.33047,7.63807 -0.66506,1.83696 0.62471,5.99566 3.5474,4.89386 3.37391,-1.2719 5.63537,-3.88033 8.04783,-6.17449 7.43852,-6.83478 12.55544,-15.12017 18.00175,-23.14291 0,0 2.39557,-0.95797 3.60033,-0.73179 1.25248,0.23513 4.83922,1.43845 4.65928,7.50086 -0.3403,8.28141 -3.67206,15.80403 -6.65485,23.37159 -1.19034,2.98364 -2.22772,6.03102 -3.53694,8.96445 -1.34778,3.01983 -2.83566,6.16373 -4.43778,8.87297 -3.25105,5.49766 -6.2793,10.66212 -8.12977,16.51105 -1.30797,4.13423 -1.92346,8.51678 -2.01197,12.85208 -0.13564,6.64347 -0.0217,13.56942 2.27671,19.80411 1.45515,3.9473 3.61727,8.03024 7.04185,10.47377 3.99753,2.85236 9.39253,4.61275 14.23499,3.79617 1.7431,-0.29394 4.598,-2.06243 6.41369,-3.74546 1.09682,-1.0167 1.74526,-2.7693 2.54946,-3.69195 0,0 -2.49642,0.45238 -4.11066,2.66409 -3.38858,4.64278 -8.83683,0.0452 -13.80043,-6.34077 -5.26788,-7.11021 -4.85266,-16.72239 -4.18276,-24.92665 1.80928,-10.35223 4.2209,-21.55644 7.57132,-31.64998 3.00899,-9.72108 7.19832,-19.54609 8.20668,-29.36314 0.55511,-5.40438 1.49461,-13.99841 -4.18277,-15.87073 -1.63223,-0.53828 -2.48845,-0.45736 -5.18871,0.64033 0,0 2.0649,-3.01865 2.80615,-4.25355 4.60693,-7.674983 5.12163,-9.779543 6.98817,-14.955993 2.20718,-6.12115 4.27799,-12.51492 4.92473,-18.88936 z"
       style="display:inline;fill:#000000;fill-opacity:1;stroke-width:0.968337;stroke-linecap:round;stroke-linejoin:bevel"
       id="path1-6"
       sodipodi:nodetypes="czzssacasaasaaaasacsssssacsac" />
    <path
       d="m 636.40843,64.008987 c -27.09205,-8.43901 -62.20289,67.078013 -20.34533,75.809033 0,0 6.73858,0.90712 13.34757,-5.57228 -4.73125,19.71973 -12.56111,24.84918 -20.79591,35.99298 -4.84459,6.55597 -4.85948,11.68477 -3.85152,10.67681 79.92028,-88.444503 59.42551,21.61466 15.1875,52.3355 -4.66517,3.23971 -6.03074,4.01724 -6.03074,4.01724 19.45537,-1.38681 29.43666,-19.372 37.65023,-32.00826 16.84645,-25.91762 12.82922,-41.07943 12.82922,-41.07943 0,0 -0.12958,-13.73633 -17.10562,-19.43821 0,0 -7.77529,-2.72135 -16.97604,1.29588 5.97241,-8.47596 12.00984,-31.46404 9.25748,-33.05311 -2.4461,-1.41226 -5.89367,2.1518 -6.79531,5.06209 -22.70904,68.12727 -48.82642,-46.408423 3.62847,-54.038243 z"
       style="display:inline;fill:#000000;stroke-width:1.275;stroke-linecap:round;stroke-linejoin:bevel"
       id="path1"
       sodipodi:nodetypes="sssssscscscssss" />
    <text
       xml:space="preserve"
       style="font-size:48px;writing-mode:lr-tb;direction:ltr;white-space:pre;inline-size:70.9728;display:inline;fill:#000000;stroke-width:3;stroke-linecap:round;stroke-linejoin:bevel"
       x="202.85654"
       y="354.50656"
       id="text1"
       transform="translate(-102.41301,-58.099687)"><tspan
         x="202.85654"
         y="354.50656"
         id="tspan7">/k/</tspan></text>
    <text
       xml:space="preserve"
       style="font-size:48px;writing-mode:lr-tb;direction:ltr;fill:#000000;stroke-width:3;stroke-linecap:round;stroke-linejoin:bevel"
       x="215.65817"
       y="292.46793"
       id="text2"><tspan
         sodipodi:role="line"
         id="tspan2"
         x="215.65817"
         y="292.46793">/g/</tspan></text>
    <text
       xml:space="preserve"
       style="font-size:48px;writing-mode:lr-tb;direction:ltr;fill:#000000;stroke-width:3;stroke-linecap:round;stroke-linejoin:bevel"
       x="320.04062"
       y="291.48315"
       id="text3"><tspan
         sodipodi:role="line"
         id="tspan3"
         x="320.04062"
         y="291.48315">/t/</tspan></text>
    <text
       xml:space="preserve"
       style="font-size:48px;writing-mode:lr-tb;direction:ltr;fill:#000000;stroke-width:3;stroke-linecap:round;stroke-linejoin:bevel"
       x="408.6673"
       y="292.46793"
       id="text4"><tspan
         sodipodi:role="line"
         id="tspan4"
         x="408.6673"
         y="292.46793">/d/</tspan></text>
    <text
       xml:space="preserve"
       style="font-size:48px;writing-mode:lr-tb;direction:ltr;fill:#000000;stroke-width:3;stroke-linecap:round;stroke-linejoin:bevel"
       x="501.23288"
       y="293.45267"
       id="text5"><tspan
         sodipodi:role="line"
         id="tspan5"
         x="501.23288"
         y="293.45267">/h/</tspan></text>
    <text
       xml:space="preserve"
       style="font-size:48px;writing-mode:lr-tb;direction:ltr;fill:#000000;stroke-width:3;stroke-linecap:round;stroke-linejoin:bevel"
       x="592.81372"
       y="290.49844"
       id="text6"><tspan
         sodipodi:role="line"
         id="tspan6"
         x="592.81372"
         y="290.49844">/θ/</tspan></text>
  </g>
</svg>
