<?xml version="1.0" encoding="UTF-8" standalone="no"?>
<!-- Created with Inkscape (http://www.inkscape.org/) -->

<svg
   width="297mm"
   height="210mm"
   viewBox="0 0 1122.5197 793.70081"
   version="1.1"
   id="svg1"
   inkscape:version="1.4.2 (f4327f4, 2025-05-13)"
   sodipodi:docname="preview.svg"
   inkscape:export-filename="preview_10.13.26.png"
   inkscape:export-xdpi="96"
   inkscape:export-ydpi="96"
   xmlns:inkscape="http://www.inkscape.org/namespaces/inkscape"
   xmlns:sodipodi="http://sodipodi.sourceforge.net/DTD/sodipodi-0.dtd"
   xmlns="http://www.w3.org/2000/svg"
   xmlns:svg="http://www.w3.org/2000/svg">
  <sodipodi:namedview
     id="namedview1"
     pagecolor="#ffffff"
     bordercolor="#000000"
     borderopacity="0.25"
     inkscape:showpageshadow="2"
     inkscape:pageopacity="0.0"
     inkscape:pagecheckerboard="0"
     inkscape:deskcolor="#d1d1d1"
     inkscape:document-units="mm"
     inkscape:zoom="0.90065236"
     inkscape:cx="561.25984"
     inkscape:cy="396.93451"
     inkscape:window-width="1920"
     inkscape:window-height="1009"
     inkscape:window-x="-8"
     inkscape:window-y="-8"
     inkscape:window-maximized="1"
     inkscape:current-layer="layer16" />
  <defs
     id="defs1" />
  <g
     inkscape:groupmode="layer"
     id="layer16"
     inkscape:label="Layer 2"
     style="fill:#ffffff">
    <rect
       style="fill:#ffffff;stroke:#000000;stroke-width:4.12552;stroke-dasharray:none;stroke-opacity:1"
       id="rect12"
       width="1119.953"
       height="789.08179"
       x="2.3936055"
       y="2.3936017"
       ry="0" />
  </g>
  <g
     inkscape:label="Layer 1"
     inkscape:groupmode="layer"
     id="layer1">
    <path
       d="m 207.09866,71.61135 c 0,0 -3.88818,22.51758 3.70557,46.88086 13.79932,44.2728 42.36177,-3.09064 55.06201,12.18164 11.27488,13.55825 13.64137,38.69573 5.84619,54.99756 -6.78637,14.19215 -20.11225,28.02212 -35.84667,29.54443 -3.66095,0.3542 -7.89819,-4.51722 -9.66993,-7.3374 -0.31032,-2.32383 -0.92453,-4.28827 -1.40674,-5.21826 -0.75462,-1.45535 -2.91064,-4.2583 -2.91064,-4.2583 1.50924,4.58163 1.29375,11.85831 -0.86231,16.43994 -2.15606,4.58163 -3.18043,5.44416 -6.14502,6.73779 -2.96458,1.29364 -4.68918,1.132 -6.14453,0.8086 -1.45534,-0.32342 -2.69531,-1.99463 -2.69531,-1.99463 0,0 0.86268,1.72499 2.96484,3.82714 2.10216,2.10216 5.28223,2.20997 5.28223,2.20997 0,0 4.68963,0.37741 7.81592,-3.3418 2.57717,-3.06594 3.61588,-5.91245 4.05225,-9.02198 1.68617,2.25703 5.00652,4.94016 10.55419,5.13721 6.39026,0.22698 12.31003,-1.31725 17.84326,-4.22705 5.53325,-2.90981 11.2306,-6.72498 15.52344,-12.4209 15.23882,-20.21951 7.94577,-42.98679 5.51026,-89.45751 -0.70713,-13.4924 -3.75412,-44.08112 -8.22656,-39.73292 -2.08132,2.0235 -4.75942,5.05577 -3.77881,8.61377 1.59714,5.79506 3.43934,13.1294 1.13184,24.67725 -3.07714,15.39942 -12.08766,23.1885 -23.18555,25.49659 -19.85807,4.12997 -26.64951,-24.91638 -34.41993,-60.542 z"
       style="display:inline;fill:#000000;stroke-width:0.75;stroke-linecap:round;stroke-linejoin:bevel"
       id="path1-26" />
    <path
       style="display:inline;fill:#000000;stroke-width:0.479203"
       d="m 95.424661,71.304845 c 0,0 -3.888,22.51755 3.70575,46.880835 13.799309,44.2728 42.361569,-3.09061 55.061809,12.18166 11.27488,13.55826 13.64141,38.6956 5.84623,54.99743 -8.57914,17.94133 -24.41847,32.66311 -48.74466,27.95411 -6.87617,-1.33107 -16.260699,-8.17469 -16.260699,-8.17469 0,0 11.534099,13.09757 29.993559,13.75325 6.39026,0.22699 12.31021,-1.31714 17.84345,-4.22694 5.53324,-2.90981 11.23036,-6.72514 15.5232,-12.42106 15.23882,-20.21951 7.94568,-42.98668 5.51017,-89.4574 -0.70713,-13.492385 -3.75377,-44.080935 -8.22621,-39.732735 -2.08132,2.0235 -4.75943,5.05572 -3.77883,8.61372 1.59715,5.79506 3.43913,13.12917 1.13162,24.677015 -3.07713,15.39941 -12.08738,23.18852 -23.18527,25.4966 -19.85806,4.12998 -26.64971,-24.91618 -34.420119,-60.541795 z"
       id="path59"
       sodipodi:nodetypes="csaascssssssssc" />
    <path
       d="m 450.40967,61.38806 c -3.73113,10.428067 -7.05521,16.955415 -12.70117,26.344727 -5.64595,9.389309 -15.79665,23.585093 -21.60205,29.408683 -5.80539,5.8236 -8.0287,1.28021 -10.33056,7.63819 -0.66506,1.83696 0.62516,5.99535 3.54785,4.89355 3.37391,-1.2719 5.63539,-3.88016 8.04785,-6.17432 7.43852,-6.83477 12.55515,-15.12032 18.00146,-23.14305 0,0 2.39583,-0.957634 3.60059,-0.731454 1.25248,0.23514 4.83912,1.438094 4.65918,7.500484 -0.3403,8.28142 -3.67199,15.80403 -6.65479,23.37158 -1.19033,2.98365 -2.22789,6.03142 -3.53711,8.96485 -1.34778,3.01983 -2.83587,6.16331 -4.43798,8.87256 -3.25105,5.49765 -6.27894,10.6623 -8.1294,16.51122 -1.30797,4.13424 -1.92369,8.51675 -2.01221,12.85206 -0.13563,6.64346 -0.0215,13.5695 2.27686,19.8042 1.45515,3.94729 3.6011,8.05313 7.04199,10.47362 3.66689,2.57948 8.60875,3.73148 13.13184,3.49219 1.53328,-0.0811 3.16922,-0.61018 4.30181,-1.64691 0.76193,-0.69744 1.03873,-1.80292 1.3589,-2.78499 0.37313,-1.14452 0.43841,-2.87682 0.63358,-3.55541 0,0 -0.1165,12.12257 2.81348,16.34619 1.59345,2.297 4.77574,2.6875 7.80761,3.06251 -2.80897,-1.90904 -3.56522,-5.35025 -4.75439,-8.31251 -1.40392,-3.49721 -2.16818,-7.12722 -2.73068,-10.97072 0,-3.26905 -1.17767,-20.07937 -1.87422,-20.77591 -0.55057,-0.55057 -1.43508,0.48456 -1.77481,1.07298 -0.79315,1.37379 -1.92784,2.36733 -1.29461,4.57945 1.55743,5.44069 2.81543,11.71291 0.33181,16.6937 -0.92231,1.84964 -2.96815,3.83008 -5.02546,3.63194 -3.70622,-0.35694 -5.98652,-4.81341 -7.63819,-8.15039 -3.73733,-7.55077 -4.8525,-16.72248 -4.1826,-24.92674 1.80928,-10.35223 4.22087,-21.55637 7.57129,-31.6499 3.00899,-9.72108 7.19819,-19.54575 8.20654,-29.36279 0.55512,-5.40438 1.49476,-13.99877 -4.18262,-15.871094 -1.63223,-0.53828 -2.48821,-0.45706 -5.18847,0.64063 0,0 2.0649,-3.01901 2.80615,-4.25391 4.60693,-7.674986 5.12126,-9.779116 6.98779,-14.955564 2.20718,-6.12115 4.27807,-12.515205 4.92481,-18.88965 z"
       style="display:inline;fill:#000000;stroke-width:0.968335;stroke-linecap:round;stroke-linejoin:bevel"
       id="path1-9"
       sodipodi:nodetypes="cssssccsccssssssaaacscacsssaaaccsscsscc" />
    <path
       d="m 555.36406,67.761497 c 0,0 -1.1636,12.13144 -3.49289,17.6625 -7.58873,18.019913 -15.75017,41.106683 -33.21453,48.348223 -5.17666,1.81521 -12.14141,4.78793 -10.51066,6.13928 3.30466,2.52567 6.36664,4.03195 10.23039,3.375 3.5875,-0.9 9.87824,-8.52215 14.05019,-13.5 3.87409,-4.62245 6.89282,-9.17606 10.0625,-15.0375 0,0 6.81838,6.41182 9.025,10.8 3.59094,7.14105 6.66706,15.75785 6.5625,24.075 -0.22982,18.28098 -3.19231,45.77388 -15.75,52.53724 -9.17989,4.94414 -17.20721,0.5326 -21.18544,-5.5926 -4.33854,-6.67997 -1.18267,-17.39205 3.82294,-23.58792 1.79914,-2.22694 5.20546,-3.74687 8,-3.125 2.9998,0.66755 4.92025,3.68411 6.35469,6.67967 0.53842,1.12437 0.66719,3.86721 0.66719,3.86721 0,0 0.98141,-2.19546 0.91875,-3.38909 -0.70222,-13.37695 -8.97358,-14.78853 -15.16035,-12.16784 -5.32072,2.25383 -8.26312,8.40572 -10.68043,13.6542 -7.43154,16.13543 4.26509,28.59975 8.10015,30.86137 5.82863,3.43728 13.5625,3.6 20.3,0 6.7375,-3.6 12.33992,-13.95495 15.925,-23.175 2.90316,-7.46631 4.07352,-16.24642 3.9375,-24.525 -0.19831,-12.07022 -1.18972,-24.92056 -6.9125,-35.54974 -2.90322,-5.39229 -5.90625,-9.7625 -13.125,-12.85625 0,0 3.15141,-5.13462 7.54431,-15.396513 4.3929,-10.26189 5.44472,-10.71669 5.81595,-15.0919 0.37124,-4.37522 -1.28526,-15.00534 -1.28526,-15.00534 z"
       style="display:inline;fill:#000000;stroke-width:1.19059;stroke-linecap:round;stroke-linejoin:bevel"
       id="path1-2"
       sodipodi:nodetypes="cacccacsasaaascssaassaacssc" />
    <path
       d="m 370.26459,66.338297 c -3.73114,10.42806 -7.0552,16.95518 -12.70115,26.34449 -5.64596,9.389323 -15.79669,23.585283 -21.60208,29.408883 -5.8054,5.82359 -8.02861,1.28009 -10.33047,7.63807 -0.66506,1.83696 0.62471,5.99566 3.5474,4.89386 3.37391,-1.2719 5.63537,-3.88033 8.04783,-6.17449 7.43852,-6.83478 12.55544,-15.12017 18.00175,-23.14291 0,0 2.39557,-0.95797 3.60033,-0.73179 1.25248,0.23513 4.83922,1.43845 4.65928,7.50086 -0.3403,8.28141 -3.67206,15.80403 -6.65485,23.37159 -1.19034,2.98364 -2.22772,6.03102 -3.53694,8.96445 -1.34778,3.01983 -2.83566,6.16373 -4.43778,8.87297 -3.25105,5.49766 -6.2793,10.66212 -8.12977,16.51105 -1.30797,4.13423 -1.92346,8.51678 -2.01197,12.85208 -0.13564,6.64347 -0.0217,13.56942 2.27671,19.80411 1.45515,3.9473 3.61727,8.03024 7.04185,10.47377 3.99753,2.85236 9.39253,4.61275 14.23499,3.79617 1.7431,-0.29394 4.598,-2.06243 6.41369,-3.74546 1.09682,-1.0167 1.74526,-2.7693 2.54946,-3.69195 0,0 -2.49642,0.45238 -4.11066,2.66409 -3.38858,4.64278 -8.83683,0.0452 -13.80043,-6.34077 -5.26788,-7.11021 -4.85266,-16.72239 -4.18276,-24.92665 1.80928,-10.35223 4.2209,-21.55644 7.57132,-31.64998 3.00899,-9.72108 7.19832,-19.54609 8.20668,-29.36314 0.55511,-5.40438 1.49461,-13.99841 -4.18277,-15.87073 -1.63223,-0.53828 -2.48845,-0.45736 -5.18871,0.64033 0,0 2.0649,-3.01865 2.80615,-4.25355 4.60693,-7.674983 5.12163,-9.779543 6.98817,-14.955993 2.20718,-6.12115 4.27799,-12.51492 4.92473,-18.88936 z"
       style="display:inline;fill:#000000;fill-opacity:1;stroke-width:0.968337;stroke-linecap:round;stroke-linejoin:bevel"
       id="path1-6"
       sodipodi:nodetypes="czzssacasaasaaaasacsssssacsac" />
    <path
       d="m 636.40843,64.008987 c -27.09205,-8.43901 -62.20289,67.078013 -20.34533,75.809033 0,0 6.73858,0.90712 13.34757,-5.57228 -4.73125,19.71973 -12.56111,24.84918 -20.79591,35.99298 -4.84459,6.55597 -4.85948,11.68477 -3.85152,10.67681 79.92028,-88.444503 59.42551,21.61466 15.1875,52.3355 -4.66517,3.23971 -6.03074,4.01724 -6.03074,4.01724 19.45537,-1.38681 29.43666,-19.372 37.65023,-32.00826 16.84645,-25.91762 12.82922,-41.07943 12.82922,-41.07943 0,0 -0.12958,-13.73633 -17.10562,-19.43821 0,0 -7.77529,-2.72135 -16.97604,1.29588 5.97241,-8.47596 12.00984,-31.46404 9.25748,-33.05311 -2.4461,-1.41226 -5.89367,2.1518 -6.79531,5.06209 -22.70904,68.12727 -48.82642,-46.408423 3.62847,-54.038243 z"
       style="display:inline;fill:#000000;stroke-width:1.275;stroke-linecap:round;stroke-linejoin:bevel"
       id="path1"
       sodipodi:nodetypes="sssssscscscssss" />
    <text
       xml:space="preserve"
       style="font-size:48px;writing-mode:lr-tb;direction:ltr;white-space:pre;inline-size:70.9728;display:inline;fill:#000000;stroke-width:3;stroke-linecap:round;stroke-linejoin:bevel"
       x="202.85654"
       y="354.50656"
       id="text1"
       transform="translate(-102.41301,-58.099687)"><tspan
         x="202.85654"
         y="354.50656"
         id="tspan13">/k/</tspan></text>
    <text
       xml:space="preserve"
       style="font-size:48px;writing-mode:lr-tb;direction:ltr;fill:#000000;stroke-width:3;stroke-linecap:round;stroke-linejoin:bevel"
       x="215.65817"
       y="292.46793"
       id="text2"><tspan
         sodipodi:role="line"
         id="tspan2"
         x="215.65817"
         y="292.46793">/g/</tspan></text>
    <text
       xml:space="preserve"
       style="font-size:48px;writing-mode:lr-tb;direction:ltr;fill:#000000;stroke-width:3;stroke-linecap:round;stroke-linejoin:bevel"
       x="320.04062"
       y="291.48315"
       id="text3"><tspan
         sodipodi:role="line"
         id="tspan3"
         x="320.04062"
         y="291.48315">/t/</tspan></text>
    <text
       xml:space="preserve"
       style="font-size:48px;writing-mode:lr-tb;direction:ltr;fill:#000000;stroke-width:3;stroke-linecap:round;stroke-linejoin:bevel"
       x="408.6673"
       y="292.46793"
       id="text4"><tspan
         sodipodi:role="line"
         id="tspan4"
         x="408.6673"
         y="292.46793">/d/</tspan></text>
    <text
       xml:space="preserve"
       style="font-size:48px;writing-mode:lr-tb;direction:ltr;fill:#000000;stroke-width:3;stroke-linecap:round;stroke-linejoin:bevel"
       x="501.23288"
       y="293.45267"
       id="text5"><tspan
         sodipodi:role="line"
         id="tspan5"
         x="501.23288"
         y="293.45267">/h/</tspan></text>
    <text
       xml:space="preserve"
       style="font-size:48px;writing-mode:lr-tb;direction:ltr;fill:#000000;stroke-width:3;stroke-linecap:round;stroke-linejoin:bevel"
       x="592.81372"
       y="290.49844"
       id="text6"><tspan
         sodipodi:role="line"
         id="tspan6"
         x="592.81372"
         y="290.49844">/θ/</tspan></text>
    <path
       style="fill:#000000;stroke-width:0.419178"
       d="m 100.49799,422.27049 c 19.40485,-38.58067 52.8644,-61.41243 45.37354,-31.5513 -6.25181,24.92186 -42.83144,59.79468 -48.143074,94.85109 -4.53703,29.94407 1.15043,42.91261 9.924654,47.3562 10.76596,5.45228 23.07225,1.43843 32.46328,-4.10965 2.7546,-1.62737 3.76219,-3.99404 5.65076,-7.7585 0.4563,-0.90953 -2.39832,-0.89063 -3.636,-0.80003 -9.92917,0.7268 -18.11073,8.91873 -27.92393,10.59739 -8.42135,1.44058 -12.22608,-10.96403 -8.32593,-32.32178 3.70827,-20.30694 26.30127,-57.61159 26.30127,-57.61159 0,0 16.14991,-26.14744 19.37989,-45.49657 3.22998,-19.34914 -10.82471,-24.66112 -20.05323,-21.17479 -9.22851,3.48633 -28.24267,28.4033 -31.01123,48.01953 z"
       id="path60"
       sodipodi:nodetypes="csssasasscssc" />
    <path
       style="display:inline;fill:#000000;stroke-width:1.125;stroke-linecap:round;stroke-linejoin:bevel"
       d="m 742.04769,78.746952 c 0,0 9.51795,8.93444 11.00434,14.93762 2.63885,10.657658 -0.50987,22.509938 -4.90555,32.571108 -4.36406,9.9888 -7.9998,12.66837 -20.41771,25.54423 -7.86101,7.36613 -16.50006,14.90473 -25.25178,21.23273 6.88621,2.76436 12.70632,1.81007 22.75999,-4.552 10.7602,-6.80916 17.26387,-17.22687 25.29208,-30.46933 6.89549,-11.37404 9.66722,-10.31042 14.72056,-2.65162 6.68552,10.13248 9.43402,21.02014 9.81112,32.21756 0.35175,10.44552 1.4563,27.44843 -4.39063,39.24005 -4.19453,8.45923 -12.34816,14.78425 -20.50111,19.54685 -3.98143,2.32578 -13.23214,4.0324 -13.23214,4.0324 l -5.55092,0.43695 c 0,0 3.04256,9.78103 7.25251,10.70526 8.20701,1.80173 24.94452,-18.53772 33.50546,-33.21366 3.71233,-6.36394 10.85365,-26.13008 11.13695,-39.95236 0.23348,-11.39268 -0.53035,-24.39522 -7.82237,-33.27822 -7.29205,-8.88303 -16.57282,-8.25803 -21.74355,-6.13673 0,0 4.9719,-12.84027 5.09122,-19.58429 0.13616,-7.69557 -0.71198,-16.157738 -5.01539,-22.539038 -2.65742,-3.94054 -6.5966,-8.72388 -11.74308,-8.08751 z"
       id="path25"
       sodipodi:nodetypes="caascssssaaccasascaac" />
    <path
       style="display:inline;fill:#000000;stroke-width:1.08;stroke-linecap:round;stroke-linejoin:bevel"
       d="m 882.3425,91.885207 c -0.93732,-1.91265 -2.83325,-1.95698 -4.3816,-1.90916 -4.55179,0.14055 -14.1499,8.17331 -21.49479,18.420123 -6.58806,9.19096 -14.70456,26.12367 -18.74135,43.27492 -4.5863,19.48597 -8.56436,49.93658 3.98736,70.72416 4.34017,7.188 11.32759,14.06 18.5895,14.025 3.01186,-0.0145 7.67295,-5.89099 7.67295,-5.89099 -3.36664,1.05126 -4.97551,0.2732 -6.9237,-1.00901 -4.06901,-2.67803 -6.88795,-8.16145 -7.65505,-12.44823 -1.59465,-8.9114 -0.63841,-21.28496 2.41236,-31.2918 2.04219,-6.69858 5.50955,-13.22007 10.34569,-18.28497 4.25033,-4.45139 9.89306,-8.45444 15.633,-9.825 16.72382,-3.99327 23.0155,8.8995 25.23907,15.41669 1.77767,5.2103 1.50717,17.41102 0.0306,16.5156 -2.04527,-1.24029 -2.40991,-1.55794 -3.98459,-2.02482 -0.51756,2.04235 -0.84917,8.32431 1.49671,11.2138 1.44344,1.77792 5.5166,-0.55282 7.06909,-2.17822 5.72141,-5.9901 7.0796,-10.13285 8.36962,-16.01711 1.1012,-5.02297 0.36203,-10.39131 -0.76919,-15.4076 -0.82796,-3.67152 -2.1143,-7.15981 -4.33154,-10.42726 -3.19689,-4.71112 -7.41097,-8.52068 -12.69703,-9.21478 -4.18202,-0.54914 -8.73522,-0.64444 -13.02745,0.0143 -3.20498,0.4919 -6.34515,1.53481 -9.283,2.907 -2.65562,1.24038 -5.10013,2.93228 -7.40076,4.7483 -3.13407,2.4739 -6.19362,5.17812 -8.63279,8.30407 -4.67342,5.98927 -7.36223,13.25325 -9.315,20.8 -2.88041,11.13171 -4.45401,27.79406 -3.21212,34.83271 0,0 -1.03061,-1.75778 -1.40488,-2.73271 -0.71456,-1.86133 -9.81033,-26.37419 -5.5234,-57.26995 2.10946,-18.34559 6.93839,-31.08166 15.78869,-45.82284 1.5052,-2.49414 13.52507,-21.875693 22.14359,-19.442253 z"
       id="path26"
       sodipodi:nodetypes="caaaaacasaassscssaassaaasacaaacc" />
    <path
       style="display:inline;fill:#000000;stroke-width:1.28336;stroke-linecap:round;stroke-linejoin:bevel"
       d="m 363.691,358.30329 c -9.37049,5.98189 -27.58305,20.26582 -33.87453,43.97569 -3.58722,13.51866 -6.6688,30.47787 -0.20431,42.45327 4.63025,8.57751 11.37169,15.96741 23.57273,12.98956 12.01045,-2.93134 21.28514,-22.91549 24.32965,-33.7106 3.00899,-10.66916 -0.39064,22.04646 -2.93981,32.68389 -3.97983,16.6075 -10.0124,39.33804 -36.69643,53.25453 -6.14198,3.20322 -14.40982,5.25859 -20.10492,5.25859 6.03529,6.28514 14.03699,6.60184 18.26106,6.2586 5.3942,-0.43833 13.42633,-3.69323 18.99563,-7.63741 14.50658,-10.27354 32.71695,-39.16206 30.93476,-74.24632 -0.73617,-14.49211 -6.31195,-43.45035 -9.14862,-42.45411 0,0 -3.80923,2.7611 -3.32663,7.5326 0,0 1.59171,5.88837 2.00175,8.90943 0.37718,2.77907 0.69187,5.61883 0.41249,8.41067 -0.27758,2.77391 -0.88621,5.58008 -2.05497,8.08336 -1.84457,3.95073 -4.40608,7.67187 -7.61377,10.49632 -4.06295,3.57754 -11.54108,8.75887 -14.13523,7.64311 -18.93025,-8.14202 -16.01858,-35.30092 -11.60603,-54.37739 1.39221,-6.01884 6.16328,-15.03575 10.53961,-21.538 3.5887,-5.33201 6.19208,-9.03871 12.65757,-13.98579 z"
       id="path24"
       sodipodi:nodetypes="caassaacsssccaaaassac" />
    <path
       style="display:inline;fill:#000000;stroke-width:0.85953;stroke-linecap:round;stroke-linejoin:bevel"
       d="m 227.25888,393.06963 c 3.90606,22.25511 -8.15292,33.47822 -12.90741,32.51499 -3.40702,-0.69023 -4.0482,-6.64938 -4.30944,-10.47612 -0.24156,-3.5385 -0.72244,-17.43619 5.78495,-25.60749 16.14216,-20.26965 41.21576,-1.47743 32.15759,18.4869 -3.65526,8.05622 -6.98771,16.38639 -10.84542,24.41135 -2.38543,4.96226 -5.03164,9.79512 -7.59982,14.66531 -5.00611,9.49338 -9.18781,19.28927 -15.22168,28.37198 -7.14008,10.74789 -14.14834,7.25456 -17.56974,13.38469 -3.3582,6.01689 -4.04185,12.05049 -6.10857,20.11533 -0.71293,2.782 5.06194,-0.46677 7.37831,-1.51223 4.5997,-2.07601 8.76943,-5.41039 12.37504,-9.19512 4.38113,-4.59878 7.6373,-10.39446 10.88149,-16.03296 4.40868,-7.66246 7.67561,-16.06187 11.58584,-24.04963 2.84396,-5.80959 11.2052,-22.78159 19.44675,-20.92444 4.71949,1.0635 2.2941,12.51382 1.96794,18.81816 -0.47487,9.1791 0.1891,18.87881 2.85877,27.80553 2.15566,7.20797 5.23056,14.5641 10.39734,20.03275 2.74161,2.90179 5.52217,5.615 10.29978,6.11113 0,0 5.02579,0.20962 7.63176,-2.05475 l -3.72281,-0.20769 c -4.05144,-1.18072 -7.1991,-6.97669 -9.61732,-11.28792 -3.86893,-6.89757 -5.5627,-14.8509 -7.38916,-22.54564 -1.59877,-6.73551 -3.09136,-16.25661 -3.09107,-20.53663 5e-4,-8.6952 1.13765,-17.45429 -6.22697,-19.67557 -4.57158,-1.37885 -10.88672,1.91688 -14.16176,4.70082 0,0 2.94289,-8.27997 4.24966,-12.49681 2.39369,-7.7243 5.59675,-15.32321 5.70993,-24.02015 0.0736,-5.65375 -0.46696,-11.08515 -2.76215,-15.9896 -2.28768,-4.88838 -7.86321,-7.83345 -12.79938,-8.47121 -3.53984,-0.45735 -15.86515,-0.59356 -24.63181,17.46315 -3.79092,7.80816 -7.4287,21.42156 -7.61484,25.22518 -0.18615,3.80363 0.30204,13.37092 6.51492,14.80107 15.73096,3.62112 22.35891,-27.27185 20.62776,-34.54788 -0.80661,-3.39019 -3.28848,-7.2765 -3.28848,-7.2765 z"
       id="path27"
       sodipodi:nodetypes="casasaasssaaasssaacccaasscsssaasssc" />
    <path
       style="display:inline;fill:#000000;stroke-width:0.24367"
       d="m 465.67645,390.79397 c -4.05871,8.10262 -8.36779,53.66537 -43.39033,80.89313 -1.23975,0.96382 -6.43412,-3.29038 -7.80417,-2.49048 -0.37388,6.04678 2.63856,14.08004 2.63856,14.08004 6.37969,0.9755 44.89113,-9.31221 55.98719,-99.2628 0,0 -5.2842,2.49382 -7.43125,6.78011 z m 16.51656,0.87771 c -0.29028,14.64913 -3.59601,70.10169 -58.07763,103.27961 -1.33405,0.81241 -6.43412,-3.29037 -7.80416,-2.49047 -0.37388,6.04677 2.63856,14.08004 2.63856,14.08004 9.44583,6.58387 72.90537,-31.98717 72.17094,-124.04009 -6.48319,5.98307 -8.84035,4.76248 -8.92771,9.17091 z"
       id="path11"
       sodipodi:nodetypes="sscccssscccs" />
    <text
       xml:space="preserve"
       style="font-size:48px;text-align:start;writing-mode:lr-tb;direction:ltr;text-anchor:start;fill:#000000"
       x="699.49298"
       y="295.34146"
       id="text7"><tspan
         sodipodi:role="line"
         id="tspan1"
         x="699.49298"
         y="295.34146"
         style="font-size:48px">/m/</tspan></text>
    <text
       xml:space="preserve"
       style="font-size:48px;text-align:start;writing-mode:lr-tb;direction:ltr;text-anchor:start;fill:#000000"
       x="822.73694"
       y="293.12088"
       id="text8"><tspan
         sodipodi:role="line"
         id="tspan8"
         x="822.73694"
         y="293.12088">/w/</tspan></text>
    <text
       xml:space="preserve"
       style="font-size:48px;text-align:start;writing-mode:lr-tb;direction:ltr;text-anchor:start;fill:#000000"
       x="91.045113"
       y="595.12415"
       id="text9"><tspan
         sodipodi:role="line"
         id="tspan9"
         x="91.045113"
         y="595.12415">/l/</tspan></text>
    <text
       xml:space="preserve"
       style="font-size:48px;text-align:start;writing-mode:lr-tb;direction:ltr;text-anchor:start;fill:#000000"
       x="202.07573"
       y="587.35205"
       id="text10"><tspan
         sodipodi:role="line"
         id="tspan10"
         x="202.07573"
         y="587.35205">/j/</tspan></text>
    <text
       xml:space="preserve"
       style="font-size:48px;text-align:start;writing-mode:lr-tb;direction:ltr;text-anchor:start;fill:#000000"
       x="417.47519"
       y="566.25623"
       id="text11"><tspan
         sodipodi:role="line"
         id="tspan11"
         x="417.47519"
         y="566.25623">/-/</tspan></text>
    <text
       xml:space="preserve"
       style="font-size:48px;text-align:start;writing-mode:lr-tb;direction:ltr;text-anchor:start;fill:#000000"
       x="311.99606"
       y="577.35925"
       id="text12"><tspan
         sodipodi:role="line"
         id="tspan12"
         x="311.99606"
         y="577.35925">/f/</tspan></text>
  </g>
</svg>
