<?xml version="1.0" encoding="UTF-8" standalone="no"?>
<!-- Created with Inkscape (http://www.inkscape.org/) -->

<svg
   version="1.1"
   id="svg1"
   width="183.4314"
   height="220.65164"
   viewBox="0 0 183.4314 220.65164"
   xml:space="preserve"
   xmlns="http://www.w3.org/2000/svg"
   xmlns:svg="http://www.w3.org/2000/svg"><defs
     id="defs1" /><g
     id="layer12"
     style="display:inline"
     transform="translate(-3576.9625,-924.89473)"><path
       style="fill:#000000;stroke-width:3.77953"
       d="m 3760.3939,1103.0866 c 0,0 -17.6777,-79.9031 -74.9533,-174.65539 0,0 -4.9406,-5.93121 -10.4406,-2.43121 -5.5,3.5 -49,33.75 -49,33.75 -6.7927,53.1832 -31.0673,119.1783 -48.5,171.25 0,0 -1.683,5.2173 0.9072,9.4027 1.8744,3.0287 5.9863,5.5171 14.5928,5.0973 6.4287,-1.08 16.8108,-10.1863 37.8166,-37.994 0,0 30.0823,-84.4156 33.0572,-75.1301 1.3167,4.1099 19.799,36.416 34.2947,100.0556 0,0 4.5962,14.8493 23.6881,5.6569 z"
       id="path93" /></g></svg>
