<?xml version="1.0" encoding="UTF-8" standalone="no"?>
<!-- Created with Inkscape (http://www.inkscape.org/) -->

<svg
   version="1.1"
   id="svg1"
   width="348.49097"
   height="801.18774"
   viewBox="0 0 348.49097 801.18774"
   xml:space="preserve"
   xmlns="http://www.w3.org/2000/svg"
   xmlns:svg="http://www.w3.org/2000/svg"><defs
     id="defs1" /><g
     id="layer6"
     style="display:inline"
     transform="translate(-1859.9329,-1543.3522)"><path
       id="path33"
       style="display:inline;fill:#000000;stroke-width:3.77953"
       d="m 2018.3168,1543.3569 c -2.6012,0.068 -6.4587,0.8724 -12.1191,2.8984 -35.3008,27.314 -60.8705,135.7608 -139.5,272 0,0 -21,35 11,20.5 0,0 17.9376,-8.2192 71,-114.5 61.903,-31.5005 95.0443,-17.4642 105.3418,15.7598 12.95,41.7822 -12.6951,115.5547 -90.5254,185.8164 -68.853,62.1574 -109.6532,149.8246 -100.2949,215.5625 5.1899,36.4562 40.5655,104.1241 116.3535,75.2363 0,0 -49.625,82.375 -68.375,102.125 0,0 4.625,24.125 7.75,25.75 2.75,3 134.1317,-189.6405 144.0312,-209.4395 0,0 0.5938,-10.0605 -23.1562,-11.4355 l -37,51.375 c -123.4286,41.7063 -102.6034,-112.3349 -70.3555,-177.6445 57.2796,-86.5246 161.3462,-142.2586 165.7305,-254.1055 5.0975,-51.3973 -12.4423,-74.0609 -40.2969,-80.3906 -25.3027,-5.7498 -59.1169,1.9787 -92.2031,13.8906 l 56.9258,-127.1699 c 0,0 3.4972,-6.4313 -4.3067,-6.2285 z m 123.9825,323.3925 c -3.6554,0.083 -6.5391,2.2715 -6.5391,2.2715 0,0 -32.5265,33.9423 -22.627,44.5489 80.8787,70.8111 60.3911,191.4623 20.0645,243.1855 0,0 -8.7505,4.6547 13.5234,10.4883 41.6787,-36.7487 114.0367,-195.2666 1.9766,-297.9883 -1.875,-1.7188 -3.8405,-2.387 -5.6582,-2.4922 -0.2499,-0.014 -0.4965,-0.019 -0.7402,-0.014 z m -94.17,106.2871 c -14.6179,8.6801 -25.4205,20.0308 -33.375,33.375 8.1106,13.1649 17.5979,22.5435 28.375,28.375 12.1128,-9.3962 23.8933,-19.3742 33.375,-33.375 -7.7935,-6.9609 -13.0887,-10.1746 -28.375,-28.375 z" /></g></svg>
