<?xml version="1.0" encoding="UTF-8" standalone="no"?>
<!-- Created with Inkscape (http://www.inkscape.org/) -->

<svg
   version="1.1"
   id="svg1"
   width="330.77277"
   height="717.27588"
   viewBox="0 0 330.77277 717.27588"
   xml:space="preserve"
   xmlns="http://www.w3.org/2000/svg"
   xmlns:svg="http://www.w3.org/2000/svg"><defs
     id="defs1" /><g
     id="layer6"
     style="display:inline"
     transform="translate(-1243.9462,-1580.9997)"><path
       id="rect35-8"
       style="display:inline;stroke-width:3.77953"
       d="m 1461.8033,1581.0072 c -0.6682,0.024 -1.4121,0.1055 -2.2402,0.2617 l -33.875,29.25 c 0,0 -8.5115,44.6863 -52.7148,127.7852 -8.2824,15.5703 -17.8179,32.4886 -28.7852,50.7148 0,0 -2.5,18.75 4.5,14.25 7,-4.5 22,-9.25 73.5,-85.5 71.054,-28.5442 94.052,14.012 46.9355,66.6387 -29.1697,32.5809 -79.0387,72.9855 -115.0136,143.166 -23.7388,54.1855 4.3064,127.1338 30.7578,146.3711 0,0 11.6688,10.6062 41.3672,-14.1426 19.859,-19.7698 -37.1503,-45.1106 -34.5059,-114.8008 1.2182,-32.1029 16.1174,-69.868 57.8399,-111.1191 44.9077,-43.0125 125.2777,-128.3816 71.791,-153.2324 -23.2209,-10.7889 -63.7377,-2.5103 -82.752,0.8496 0,0 36.5801,-64.9805 28.8301,-97.9805 0,0 -0.9573,-2.6792 -5.6348,-2.5117 z m 33.0196,456.5215 c -11.8646,1.14 -27.9495,22.5837 -35.3536,31.4648 -1.5747,2.9286 55.5463,89.2859 72.125,127.2793 0,0 3.4688,8.9961 41.2188,-21.2539 0,0 4.8445,-2.9474 -0.9141,-17.6367 -6.7102,-17.1165 -47.0241,-92.6299 -77.0761,-119.8535 z m -166.9551,21.7304 c -1.2077,0.029 -2.1731,0.4096 -2.75,1.25 0,0 -34.333,38.7738 -58.5742,89.7032 -27.8495,58.5102 -25.7847,94.2587 -15.9141,115.0722 18.2352,36.7975 68.3742,32.6744 104.0586,32.9844 l 62.25,-47 c 0,0 2.1366,-3.1999 -5.1113,-1.6973 0,0 -60.1387,22.1973 -99.8887,2.4473 -39.75,-19.75 -40.5607,-74.838 -2.7305,-128.2246 37.8302,-53.3866 36.7305,-51.2754 36.7305,-51.2754 2.0613,-3.314 -11.5489,-13.415 -18.0703,-13.2598 z m 70.6953,60.7598 c -14.6179,8.6799 -25.4205,20.0306 -33.375,33.375 8.1105,13.1647 17.5978,22.5434 28.375,28.375 12.1128,-9.3963 23.8933,-19.3743 33.375,-33.375 -7.7935,-6.9611 -13.0886,-10.1747 -28.375,-28.375 z" /></g></svg>
